<svg width="465" height="465" viewBox="0 0 465 465" fill="none" xmlns="http://www.w3.org/2000/svg">
<path d="M187.533 358.711C176.671 352.95 171.682 342.777 170.027 330.95C169.145 324.72 165.369 317.469 169.586 311.294C172.178 307.517 176.644 304.457 178.932 300.046C180.641 296.738 183.453 295.47 186.788 296.766C188.801 297.538 191.502 300.68 190.317 303.878C188.47 308.923 190.152 313.003 190.648 317.855C191.916 330.426 195.665 342.005 205.121 340.682C218.298 338.807 210.937 316.918 225.245 288.771C241.758 256.296 272.688 255.992 256.506 208.796C252.84 198.099 245.645 191.786 234.618 189.719L220.889 183.984C213.363 182.799 207.078 187.127 200.572 189.167C186.954 193.468 167.877 210.202 164.707 222.58C163.136 228.728 163.687 235.84 158.67 240.995C155.334 244.386 146.127 243.449 144.28 238.431C142.157 232.67 142.846 225.86 138.353 221.477L118.642 202.262C114.59 198.32 96.092 190.628 99.0417 184.894C99.6206 183.764 102.019 183.02 103.48 184.067L121.068 196.666C129.311 202.565 138.105 206.177 148.746 206.342L157.76 187.1C172.646 155.314 178.656 121.598 175.1 86.4484L175.706 81.5137C175.844 80.2731 177.912 78.1504 180.117 79.7493C183.012 81.8445 183.673 88.3506 183.012 92.3204C180.641 106.656 182.708 119.503 185.796 133.48L190.951 156.913C191.806 160.772 194.232 163.308 197.981 164.301C203.604 155.892 210.662 148.67 213.088 138.773C213.722 136.236 213.832 134.444 215.927 133.342C217.278 132.625 221.055 133.755 220.476 135.327C217.03 144.783 214.687 153.301 217.912 163.529C235.583 161.544 248.842 169.87 259.263 181.724C267.092 190.628 271.365 198.017 276.024 209.678C278.973 217.066 290.138 225.888 298.188 228.121C330.579 237.053 363.66 233.497 394.646 239.093C396.41 240.251 393.874 244.111 391.421 244.827C364.101 252.602 337.085 258.005 309.215 263.243C295.266 265.862 283.412 271.127 271.392 277.992C266.348 280.859 262.488 283.781 263.37 291.142C264.528 300.653 267.34 310.77 271.806 319.702C273.267 322.597 276.934 327.118 273.405 330.096C262.378 326.539 257.802 310.853 242.254 305.56C236.079 314.354 239.773 324.224 247.051 330.895L249.504 333.872C250.469 335.058 249.421 338.78 248.236 338.476C242.64 336.988 239.332 332.659 234.452 329.544C230.731 348.952 225.107 359.649 205.92 360.531C199.58 360.806 193.239 361.744 187.588 358.739L187.533 358.711Z" fill="white"/>
<path d="M95.4308 378.366C92.7292 381.15 88.7871 387.684 84.3763 385.313C77.8153 381.757 72.3018 374.727 69.7656 367.835L133.556 302.912L167.437 269.113L186.982 250.974C192.578 245.763 198.56 237.989 206.417 235.728C213.446 233.688 220.972 244.716 222.268 251.139L182.433 287.115L157.76 311.927L131.13 339.467L118.863 354.216L95.3757 378.421L95.4308 378.366Z" fill="white"/>
<path d="M223.618 219.38C216.616 215.658 206.085 214.721 199.166 217.919C189.517 222.357 189.6 245.542 178.987 247.196C175.43 247.747 175.072 241.958 173.363 240.304C169.338 236.417 169.09 230.958 171.929 225.5C175.127 219.38 177.002 214.776 182.791 210.448C189.545 205.403 196.051 198.483 205.286 197.077C224.087 194.21 238.615 197.822 247.271 214.555C251.571 222.826 251.158 241.489 245.065 243.557C243.825 243.998 241.454 243.006 240.076 241.462L230.151 230.242L223.59 219.38H223.618Z" fill="white"/>
<path d="M303.454 177.177L288.099 192.504C282.503 190.244 274.508 185.282 272.771 179.134C273.819 171.994 282.089 166.756 286.693 161.38L310.511 133.729C312.413 131.524 315.859 125.79 320.077 127.609C325.921 130.118 330.828 137.01 333.806 142.992L303.454 177.149V177.177Z" fill="white"/>
</svg>
