<svg width="465" height="465" viewBox="0 0 465 465" fill="none" xmlns="http://www.w3.org/2000/svg">
<path d="M282.972 268.348L274.496 262.338C275.446 269.812 273.571 275.977 266.868 277.852C262.707 290.13 263.297 301.509 267.407 313.196C269.154 318.179 271.003 323.805 268.126 329.019C260.061 312.888 249.633 288.897 236.97 296.243C232.142 299.043 225.772 297.784 223.178 291.671L216.962 277.03C214.162 270.429 211.876 264.11 207.253 258.998C199.625 250.573 200.652 241.635 203.529 231.977C206.097 223.372 199.728 200.922 205.763 200.614C212.416 200.254 213.032 194.424 216.628 191.804L227.185 184.046C241.799 173.335 259.085 172.513 266.996 166.4C271.722 162.753 279.196 162.958 281.97 168.737L302.698 168.866C308.939 168.891 312.715 172.154 317.441 175.005C322.989 178.318 327.972 180.348 332.081 186.127L341.867 189.466C346.542 192.882 341.662 198.816 342.535 201.77C343.999 206.676 349.264 209.938 348.288 215.717C347.415 220.829 346.054 229.023 340.583 231.334C334.65 233.852 326.482 235.29 323.323 242.071C318.545 252.294 334.855 264.855 325.634 274.051C322.835 276.85 317.698 274.872 315.104 272.895C314.051 273.177 311.765 275.232 310.403 274.41C307.039 272.381 305.986 268.554 304.676 264.393L296.405 264.958L291.474 270.146C289.496 272.227 285.669 270.249 282.972 268.348Z" fill="white"/>
<path d="M252.355 155.228C222.124 162.035 196.594 191.42 191.277 221.832C188.246 239.119 194.462 256.92 202.758 271.098L214.753 291.596L224.565 309.884C234.017 327.505 220.583 353.14 230.806 366.856C233.58 370.581 234.119 374.845 230.986 378.852C228.957 381.472 224.487 384.631 220.506 381.086L213.828 365.367C203.529 351.907 190.096 342.095 175.378 333.927L145.764 317.513L93.495 306.391C119.771 294.165 149.282 308.42 174.222 288.899C154.702 268.427 116.945 281.861 115.455 272.794C114.608 267.708 126.474 265.473 137.339 266.192C147.51 266.886 158.169 265.216 163.923 255.481C157.681 251.346 151.157 251.397 144.531 250.909L100.404 247.673L77.3136 249.959C74.9249 250.19 71.1235 249.394 70.353 247.673C66.0893 238.143 88.8974 238.503 102.51 236.91L132.356 233.391C142.347 232.21 156.705 229.821 162.51 220.471C167.673 212.149 160.404 200.025 155.164 193.244L140.395 179.759C139.522 178.962 137.93 178.449 137.93 177.729C137.93 176.573 140.216 174.724 141.628 175.52C152.955 181.762 174.222 184.69 175.404 183.637C183.212 176.548 167.647 144.954 159.428 129.902L134.18 83.6924C132.767 81.1238 132.074 79.0432 133.127 76.7314C139.24 62.9894 165.027 94.609 179.822 108.069L196.131 122.889C206.765 132.547 221.611 139.919 236.765 138.481C245.138 137.685 249.941 127.333 251.662 120.501L255.412 105.705C256.003 103.419 258.237 101.955 260.318 101.827C262.398 101.698 263.965 103.419 264.992 105.68L274.162 126.049C277.424 133.292 284.179 138.378 289.907 143.413C294.89 141.82 298.151 139.508 301.824 136.734C317.852 124.585 331.413 110.791 345.232 96.1758C353.785 87.1343 362.903 79.3514 369.735 68.8715C371.764 65.7378 374.41 64.8901 376.875 65.9689C381.113 67.844 380.625 71.2346 378.442 74.882L342.072 136.323C340.146 139.585 340.583 143.541 341.816 145.776C346.362 154.047 363.75 146.444 375.154 138.661C376.413 137.813 377.338 138.404 377.903 139.226C378.339 139.868 378.083 141.152 377.312 142.154L366.73 155.691C363.083 160.365 356.482 166.145 357.021 173.003C357.74 182.045 368.297 188.209 376.31 190.316C379.187 191.06 379.392 194.194 377.903 195.761C372.535 201.463 372.483 207.859 374.153 215.128L375.052 239.761C375.257 245.412 381.524 249.342 384.067 254.068C386.815 259.154 388.331 263.983 392.261 268.555C395.137 271.895 396.858 278.008 392.646 280.808L381.37 288.282C387.149 292.289 383.194 297.041 382.629 301.228C381.935 306.365 384.375 310.758 379.136 315.458C376.541 317.77 388.716 334.928 377.286 340.913C359.256 350.366 348.571 341.324 342.715 350.083C337.989 357.173 335.959 367.087 336.293 375.846L342.304 399.478C334.906 393.878 333.674 384.811 328.511 377.49C326.097 380.033 323.297 387.457 318.494 386.866C315.052 386.455 314.692 378.877 316.002 376.54L327.201 356.736L331.542 345.819C338.168 336.495 349.393 333.439 360.206 334.851C364.547 335.416 369.17 332.642 372.869 331.024L368.194 317.513C366.833 313.558 369.452 310.655 371.071 308.266C370.018 303.206 369.555 298.069 372.329 293.574C370.968 291.288 368.014 286.382 370.737 284.147L384.093 273.205C380.317 269.506 378.93 264.857 376.31 260.387C372.74 254.3 367.577 248.983 365.471 242.073C363.185 234.573 367.706 221.807 363.16 211.995C358.588 202.131 353.399 192.422 345.771 184.51C341.687 180.272 336.37 175.135 330.925 173.054L303.597 162.626L274.188 157.052C267.843 155.845 259.265 154.098 252.407 155.228H252.355Z" fill="white"/>
</svg>
