<svg width="465" height="465" viewBox="0 0 465 465" fill="none" xmlns="http://www.w3.org/2000/svg">
<path d="M170.087 212.841C172.432 204.361 179.409 200.272 177.785 191.521C170.057 190.739 163.231 185.898 156.164 183.853L135.355 177.809C138.513 174.471 143.234 175.223 147.474 175.764C155.713 176.847 165.606 173.479 166.599 164.548L164.524 142.566C170.959 153.061 175.62 172.126 182.446 170.682C188.821 169.329 186.716 155.527 192.88 152.069C191.377 166.382 187.889 174.02 201.511 181.688L170.117 212.841H170.087Z" fill="white"/>
<path d="M146.483 356.758C146.603 350.323 141.371 339.107 132.921 340.249C118.307 342.204 107.542 352.368 96.0547 361.81L102.64 330.296C104.324 322.207 91.6042 313.877 97.889 309.517C99.0918 308.675 101.227 308.976 103.091 310.359C123.329 325.244 170.209 344.399 195.167 347.556C200.069 348.188 207.105 345.572 210.714 342.805C220.036 335.618 206.263 321.365 208.579 310.269C209.481 305.969 213.781 301.879 218.803 297.248C207.677 289.821 196.761 284.709 184.402 281.491C182.447 280.98 182.658 276.71 183.41 275.417C189.815 264.471 224.245 285.761 228.786 277.191L230.019 263.9C235.041 256.352 241.326 251.962 250.347 248.354C243.882 232.777 242.047 216.268 240.033 199.399L236.905 172.846L233.026 150.775L230.109 125.816L225.629 102.211C224.877 98.3015 226.17 91.8965 230.29 91.8965L253.955 91.8363L281.891 90.9943C302.309 90.3929 321.824 89.8216 342.784 92.3174C348.768 115.893 350.271 139.588 349.189 164.126C356.616 163.825 360.766 167.674 361.006 174.32C362.029 201.895 353.699 221.681 355.413 234.852C356.135 240.475 350.452 242.851 348.347 245.647C340.889 278.995 346.783 306.66 368.945 333.694C355.082 329.364 346.633 320.613 336.228 313.547C334.634 311.652 330.515 313.005 330.846 315.05C332.59 325.424 340.919 330.176 344.227 340.279C336.439 334.596 331.387 328.401 323.178 324.462C316.352 336.37 306.819 344.188 296.385 351.045C290.792 354.743 287.213 356.698 280.056 356.938L242.408 358.292C233.808 358.592 226.531 354.322 218.863 349.511C205.632 357.239 191.619 358.231 177.185 352.428C171.321 361.659 171.923 372.786 169.457 374.319C168.615 374.86 167.202 374.229 167.051 373.447C166.961 372.906 173.156 355.284 161.759 348.398C156.106 344.97 151.415 351.135 146.453 356.698L146.483 356.758ZM301.587 183.852C297.347 177.537 291.273 176.996 284.687 177.688C280.177 178.139 276.478 181.898 273.802 187.551C283.304 184.424 291.573 184.243 301.587 183.852ZM265.833 295.234C275.395 292.046 284.387 291.956 292.025 285.671C268.81 288.498 244.272 289.009 222.231 287.866C234.439 300.767 250.437 300.376 265.863 295.264L265.833 295.234Z" fill="white"/>
</svg>
