<svg width="465" height="465" viewBox="0 0 465 465" fill="none" xmlns="http://www.w3.org/2000/svg">
<path d="M355.169 292.519C361.803 285.718 370.843 280.327 379.261 282.981C387.679 285.635 392.696 293.099 394.438 299.195C399.994 318.809 372.46 334.028 349.156 341.99C340.241 345.017 331.574 340.788 326.225 334.153C312.79 317.4 301.137 300.729 289.402 282.359L229.731 286.547C211.03 287.874 196.765 269.628 198.009 249.724L204.312 148.458C205.141 134.94 215.425 129.176 226.124 130.046C237.817 130.959 244.328 139.708 243.498 152.688C242.379 170.975 271.737 158.95 305.284 167.368C312.997 169.317 314.987 178.564 313.121 184.784C306.818 205.767 279.16 191.792 246.608 197.1C245.406 211.324 245.406 224.677 246.94 240.186C262.407 238.237 277.169 239.315 293.01 238.112L310.384 236.827L328.754 256.815L355.21 292.519H355.169Z" fill="white"/>
<path d="M242.13 72.0318C249.221 76.7177 252.58 107.612 231.681 117.896C222.06 122.664 210.201 120.591 200.663 112.546C188.597 102.387 191.748 81.8598 205.142 70.7463C214.43 63.0747 231.764 65.1481 242.089 71.9904L242.13 72.0318Z" fill="white"/>
<path d="M338.541 399.134C319.342 396.439 297.655 372.802 280.156 379.52C217.416 403.571 178.396 373.465 130.253 379.354L98.3648 383.252C96.6232 383.459 95.4621 378.732 96.1671 377.695C101.267 370.106 125.111 362.601 140.495 349.663C134.731 341.493 123.328 344.064 119.803 338.052C117.357 333.905 128.719 332.702 129.424 327.477C131.248 314.29 99.8991 303.923 79.912 297.703C74.1896 295.92 68.5916 294.303 70.0844 286.921C92.1033 289.202 118.186 296.625 126.977 287.377C129.88 273.361 130.792 259.469 138.09 246.573C146.052 232.515 142.776 216.26 132.368 204.483L94.4255 161.604C99.8162 156.379 105.29 160.36 109.022 164.632L152.272 214.559L149.328 199.88C156.087 198.304 159.238 202.202 162.017 206.929C171.056 201.124 178.189 194.074 189.924 190.176C195.19 197.018 198.549 215.14 191.085 222.563C167.988 245.619 150.447 276.181 158.492 310.102C160.814 319.93 169.398 331.997 175.659 339.793C191.251 359.242 216.96 364.301 240.928 359.739C266.223 354.929 285.878 336.517 298.94 315.161C306.777 314.995 308.229 322.791 311.297 325.653C320.545 334.278 321.581 341.162 319.093 352.648C314.407 374.087 339.495 389.97 341.071 393.453C341.983 395.444 340.614 399.383 338.624 399.134H338.541Z" fill="white"/>
</svg>
