<svg width="465" height="465" viewBox="0 0 465 465" fill="none" xmlns="http://www.w3.org/2000/svg">
<path d="M137.878 286.556C131.64 278.62 125.164 268.719 115.98 264.02C100.32 255.977 84.0757 249.288 66.9556 246.209L29.9021 239.547C28.3095 238.91 29.6101 234.53 30.4329 233.282C31.7601 231.265 34.9717 231.53 37.918 231.159L73.7506 226.752L132.543 216.002C137.294 215.126 141.487 208.649 142.231 204.269C143.69 195.775 141.249 188.21 140.081 180.406C138.515 170.08 133.551 162.648 129.092 153.517L115.741 126.203C114.812 124.318 110.698 119.912 112.317 118C117.466 111.895 122.563 117.576 126.146 121.796L156.643 157.631L187.274 180.645C192.98 179.822 196.829 179.158 202.27 176.743C208.959 160.02 215.966 142.766 218.328 124.504V104.304L221.593 70.7252C221.726 69.398 225.362 69.6103 226.318 70.2209C227.91 71.2295 229.078 72.6629 229.397 75.3173L233.75 111.338C238.262 131.963 251.878 170.797 266.742 179.238C274.652 183.724 283.358 183.352 292.701 186.458L267.698 213.215C239.032 200.473 211.958 210.826 185.071 224.974C172.197 231.743 144.646 246.528 145.071 253.934C145.336 258.34 163.306 267.046 171.799 273.019C178.143 277.505 183.133 285.521 192.237 285.946C189.954 294.706 184.274 297.732 178.939 302.987C175.064 306.783 173.1 312.649 166.995 314.242C156.617 305.376 146.318 297.121 137.931 286.503L137.878 286.556Z" fill="white"/>
<path d="M186.423 312.57L202.455 296.538C208.348 290.645 213.072 291.972 220.133 292.582C232.74 293.644 246.622 295.555 259.257 293.352C282.561 289.291 302.176 275.86 321.26 263.225C326.197 259.96 331.054 257.385 331.691 250.749L323.649 244.378C316.536 233.07 295.142 218.71 285.507 219.745C283.384 219.984 281.712 218.975 281.26 217.781C280.517 215.817 281.393 214.463 282.959 213.056L304.512 193.679C311.041 194.82 313.51 201.376 318.181 204.721C338.752 219.506 383.954 205.491 411.027 196.466L430.855 187.361C432.447 186.618 434.597 186.83 435.42 188.104C436.296 189.458 435.845 192.484 433.987 193.413L402.215 209.366C383.105 218.949 367.152 232.486 350.51 246.502C353.881 256.031 350.855 263.49 343.848 269.728L332.992 284.566C322.773 293.724 312.82 301.209 301.141 307.978L272.05 324.86C257.292 330.912 244.738 337.84 232.581 347.954L197.81 376.914L177.372 395.256C173.418 391.062 175.567 387.133 178.301 383.258C191.307 364.942 209.17 323.905 189.37 322.047C187.06 321.834 184.645 320.427 184.167 318.941C183.557 317.003 184.353 314.588 186.423 312.544V312.57Z" fill="white"/>
<path d="M238.289 291.466C229.609 290.086 220.85 290.776 213.551 285.308L235.528 262.825L248.056 250.535L271.228 227.574C278.448 240.953 277.731 255.18 275.316 268.877C274.387 274.106 271.653 276.203 268.653 279.76C260.956 288.838 251.002 293.51 238.289 291.493V291.466Z" fill="white"/>
<path d="M203.252 276.894C197.97 266.435 197.068 254.756 197.785 243.793C198.289 236.467 202.456 231.848 206.437 226.433C218.621 209.922 245.561 207.507 261.699 219.85L238.342 242.359L203.252 276.867V276.894Z" fill="white"/>
</svg>
