<svg width="134" height="105" viewBox="0 0 134 105" fill="none" xmlns="http://www.w3.org/2000/svg">
<path d="M32.0795 0C33.5219 1.27729 35.7585 3.67676 37.1909 5.11492C41.2265 9.21381 45.2825 13.2921 49.3588 17.3496L61.2305 5.42193C62.438 4.20885 65.4403 0.96214 66.6363 0.0360706L83.8574 17.3652C87.5792 13.6559 91.2734 9.89893 94.983 6.17641C95.1543 6.00472 95.4622 6.1729 95.6468 6.2369C95.9527 5.68328 96.3014 4.91798 96.749 4.47916C97.0406 4.19359 97.4199 4.50173 97.787 4.33746C97.7993 3.931 97.8064 3.83135 97.89 3.43623L97.9859 3.41015C98.0776 3.69882 98.0878 3.7589 98.1194 3.97635C98.1592 4.24718 98.875 5.13131 99.0901 5.46635C98.9056 5.40255 98.7272 5.33845 98.5406 5.28167L98.5518 5.39009C98.8403 5.70626 99.2013 6.15652 99.5612 6.35109L99.7244 6.24329C99.7121 5.45728 99.1493 5.73192 99.1014 4.82966L99.236 4.69476L99.4358 4.85512C99.5123 5.16882 99.5602 5.59084 99.8712 5.70771L100.124 5.54312L100.177 5.27713C100.127 5.26765 100.93 5.60218 101.126 5.66133C101.385 5.91578 101.584 6.07459 101.408 6.44745C100.981 6.41354 100.943 6.04811 100.335 5.76511L100.239 5.83766C100.411 6.99901 101.055 6.40066 101.73 7.15205C102.057 7.51563 101.986 8.39801 102.528 8.6741C103.113 8.14171 102.008 7.93291 102.086 6.94697L102.217 6.84958C102.394 6.97325 102.633 7.31591 102.786 7.51089L102.845 7.44164L102.855 7.54418L102.754 7.47905L102.819 7.34971C102.727 7.09217 102.703 6.9414 102.647 6.675L102.745 6.65758C102.974 6.93388 103.087 7.03961 103.091 7.40351C103.1 8.15984 102.96 7.68362 102.808 7.86685C103.001 8.06369 103.171 8.00907 103.513 8.03731C103.635 8.24435 103.611 8.12872 103.557 8.38863C103.349 8.31886 103.327 8.31051 103.108 8.26609L103.122 8.69718C102.906 8.88166 102.787 8.79705 102.445 8.84991L102.565 8.84157L102.649 8.93906C103.009 9.03748 103.29 9.26122 103.727 9.41075C103.647 9.18382 103.562 9.05716 103.446 8.84827L103.542 8.70945C103.877 8.66379 103.853 8.66503 104.158 8.81972L104.166 8.94844L103.763 8.98543C104.084 9.32841 105.286 10.6806 105.655 10.7983C105.672 10.5031 105.612 10.6081 105.758 10.4152L105.918 10.5523C106.01 10.9015 106.092 11.1231 106.077 11.4872L105.971 11.5204L105.845 11.1364C105.627 10.9954 105.446 11.0561 105.17 11.083L105.044 11.0961L104.919 10.9862C104.886 10.8868 104.724 10.4151 104.678 10.3854C103.919 9.89306 103.034 9.4123 102.178 9.2877L102.108 9.40158L102.353 9.6147L102.005 9.68509C102.057 10.0068 102.125 10.0256 102.354 10.2596C102.604 9.77887 102.487 9.81308 102.869 9.66293C103.107 9.75187 103.163 9.8643 103.317 10.0619L103.534 9.9822C104.104 10.0926 105.017 11.8533 105.537 12.1882C105.582 11.9505 105.42 11.7111 105.306 11.4365L105.586 11.3151C106.006 11.6958 105.93 11.8978 105.845 12.4186L105.822 12.5512L105.928 12.6004L106.098 12.3181C106.626 12.2447 106.625 13.3287 107.114 13.6842C107.079 13.4622 107.04 13.2409 106.997 13.0204C107.437 13.1801 107.491 13.6411 107.948 13.8741C107.699 13.3835 107.632 13.2851 107.514 12.76C107.793 12.5064 107.767 12.5101 108.125 12.4087C108.498 12.6028 108.735 13.3161 108.607 13.7126C108.289 13.6291 108.504 13.2453 108.215 13.0211C108.092 13.4366 108.057 13.4905 108.082 13.9122C108.31 14.0617 108.537 13.9514 108.895 13.8999L109.043 14.0298L108.995 14.1528C108.609 14.3645 108.273 14.3758 107.837 14.4389L107.779 14.5172C108.167 14.6416 108.405 14.9511 108.776 14.9274C108.768 14.6825 108.753 14.6758 108.67 14.4461L108.802 14.3707C109.112 14.5443 109.195 14.6234 109.286 14.913C109.075 15.3907 108.708 15.3031 108.61 15.6219L109.052 15.7173C109.266 15.9124 109.247 15.9209 109.353 16.1987L109.18 16.3927L109.399 16.9344L109.567 16.9438L109.439 16.7727C109.524 16.4573 109.445 16.5867 109.687 16.3707L109.864 16.4227L109.996 16.8117C110.302 16.9868 110.234 16.9249 110.66 16.884L110.576 17.2863L110.383 17.3495L110.039 17.1166L109.875 17.1609L109.836 17.3381C110.317 17.91 109.924 17.6369 110.211 18.1398L110.363 18.2137C110.519 17.7923 110.429 17.8397 110.73 17.6209C111.115 17.6053 110.953 17.5479 111.241 17.7718C111.441 18.2958 111.416 18.8186 111.678 19.1199C112.042 19.1999 111.952 19.1619 112.366 19.0068L112.409 18.9381L112.227 18.7427L112.362 18.2339C112.632 18.5596 112.769 18.61 112.825 18.9622C112.637 19.2166 112.583 19.2574 112.454 19.5482C112.897 20.0292 113.562 19.9663 113.66 20.605C113.441 20.7996 113.27 20.8988 113.107 21.145L112.448 20.9848C112.842 21.2833 113.343 21.7111 113.808 21.1419C113.928 20.5127 113.542 20.3772 113.731 19.9199L113.878 19.8837C115.015 20.6449 113.806 21.9251 114.565 22.5421C114.918 22.526 114.798 22.5783 115.072 22.4015C113.863 21.2917 115.065 21.2663 114.433 20.1465L114.507 20.0295C114.971 20.0791 114.789 19.9891 115.118 20.2224C115.173 20.5618 115.126 20.6624 115.049 20.9916C115.186 21.3021 115.076 21.1918 115.401 21.3218C115.672 21.1511 115.573 21.2701 115.67 20.9249C115.622 20.7822 115.578 20.6516 115.526 20.5102L115.723 20.5691C116.384 20.7611 116.187 20.2368 117.028 20.8383C117.433 21.1283 117.938 21.4483 118.357 21.7694C118.283 22.2448 118.441 22.7457 117.918 22.9335C117.599 22.5477 117.955 22.2143 117.81 21.4998L117.477 21.692C117.338 21.2636 116.467 20.9737 116.034 20.7537C116.226 21.1196 116.384 21.3963 116.518 21.789C116.05 21.5523 116.216 21.5483 115.803 21.6554C115.556 22.0154 115.822 22.3085 116.021 22.6622L116.128 22.705C116.347 21.9535 116.035 22.0707 116.253 21.8653C116.551 22.038 116.648 22.1123 116.988 22.1985L117.283 22.0424L117.528 22.1129L117.588 22.3178C117.38 22.6269 116.912 22.6825 116.871 23.2372C117.261 23.2868 117.284 23.2636 117.543 22.9182C117.691 23.1545 117.811 23.1888 117.643 23.4299C117.921 23.5065 118.143 23.5743 118.417 23.6662L118.21 23.9193L118.291 24.5041L118.19 24.4109C117.852 24.1027 117.711 23.9113 117.264 23.9234C117.226 24.2027 117.293 24.1101 117.132 24.2636L117.218 24.3535L117.571 24.3561C117.648 25.1623 117.021 25.2404 116.918 25.6672C117.028 25.9436 116.97 25.9633 117.14 26.047C117.361 25.6876 117.439 25.7049 117.882 25.6762C117.824 25.2874 117.732 25.1534 117.869 24.8642C118.26 24.95 118.632 25.3227 118.869 25.6385L118.838 25.7489L118.891 25.6882L118.7 25.704C118.479 25.5246 118.482 25.5007 118.233 25.3818L118.172 25.5437L118.247 25.6897C118.425 26.0463 118.495 26.0757 118.441 26.4005C118.106 26.2932 118.123 26.231 117.878 26.3393L117.907 26.4783C118.641 26.7005 118.79 26.753 119.456 27.1414C119.249 26.8834 119.041 26.6845 118.968 26.3684L119.086 26.2594L119.266 26.2956L119.268 26.7214C119.523 26.7916 119.4 26.7684 119.638 26.7966C120.07 27.1369 120.377 27.3452 120.724 27.7783L121.033 27.7967L121.084 27.7003C120.635 27.3317 120.635 27.3211 120.723 26.7377C120.031 26.1068 119.921 26.6751 119.109 25.5516C119.143 25.3127 119.113 25.3929 119.245 25.1962C119.119 24.8909 119.067 24.8832 118.818 24.6744L118.859 24.568L118.984 24.5913L119.141 24.6837C119.503 24.8939 119.841 24.9339 120.08 25.2126C120 25.3483 119.94 25.4514 119.867 25.5921C120.091 25.6198 120.125 25.5238 120.374 25.3522C120.287 24.8612 120.064 24.3813 120.164 23.9761C120.416 23.7707 120.278 23.8206 120.589 23.8049L120.613 24.0429L120.438 24.1581L120.481 24.2566L120.8 24.3108L120.927 24.5066C120.683 24.5926 120.809 24.5671 120.546 24.5814L120.517 24.7023C120.994 25.3151 121.533 24.8514 121.989 25.9176C122.562 26.214 122.63 25.5776 123.052 26.2682L122.623 26.1151C122.515 26.3243 122.546 26.2347 122.553 26.4925C122.17 26.4223 122.095 26.4311 121.711 26.5018L121.616 26.6401C122.105 27.4442 122.288 26.9776 122.586 27.5328C122.346 27.7031 122.453 27.6291 122.077 27.6419C122.19 27.8352 122.248 27.9469 122.305 28.1628L121.898 28.0796C122.12 28.3362 122.156 28.3533 122.19 28.6934C122.584 28.8886 122.658 28.6939 123.129 28.6631C123.417 28.8808 123.324 28.8374 123.403 29.332L123.502 29.3087L123.552 28.9487L123.678 28.8754L123.833 29.0315C123.823 29.1867 123.756 29.4198 123.718 29.579C123.98 29.8157 123.991 29.8447 124.084 30.1873L124.016 30.3433L123.694 30.2067C123.528 30.3964 123.48 30.4734 123.242 30.5537C123.447 30.878 123.547 30.9107 123.551 31.2343C123.349 31.415 123.423 31.3706 123.189 31.4676C123.394 31.6905 123.495 31.8464 123.779 31.9421C124.111 31.5145 123.718 31.007 124.293 30.5066L124.663 30.4891L124.754 30.3882C124.609 30.1508 124.548 30.1078 124.349 29.9089L124.357 29.702C124.601 29.7894 124.53 29.7956 124.745 30.0458C124.775 29.8836 124.813 29.7254 124.858 29.5665L125.004 29.4925C125.408 29.6782 125.69 29.9933 125.869 30.4043C125.67 30.2561 125.529 30.1446 125.341 29.9821C125.372 30.4081 125.537 30.3972 125.494 30.8532C125.988 31.0025 126.001 30.6311 126.309 30.8829L126.235 31.2141L126.411 31.4121L126.289 31.5561C125.698 31.5205 125.832 31.1242 125.532 31.3154C125.523 31.7593 125.518 31.7814 125.667 32.1911C126.174 32.4976 126.643 31.9158 126.412 33.0903L126.506 33.2798C126.82 33.385 126.867 33.3523 127.192 33.3107C127.535 33.5598 127.462 33.4079 127.569 33.7296C127.272 33.7141 127.35 33.7047 127.054 33.5585L126.883 33.6247C127.102 33.8793 127.611 34.0501 127.938 34.0458L128.008 33.9066C127.854 33.5959 127.777 33.4319 127.661 33.1063C127.872 32.7716 128.308 32.8623 128.67 32.8929L128.835 33.0296C128.674 33.7603 127.929 33.9103 128.237 34.673L128.621 34.9804L128.563 35.4003L128.6 35.5927L128.793 35.6739C129 36.1076 128.772 35.6575 128.595 36.2088L128.814 36.5067L128.7 36.5924C128.937 36.9274 129 36.8903 128.982 37.2116L128.686 37.4159C128.736 37.677 128.995 38.0725 128.992 38.2284C128.968 39.3367 129.013 40.4548 128.958 41.5604C128.878 41.6284 128.797 41.6963 128.716 41.7643C128.831 42.1519 129.021 42.425 128.976 42.8327L128.586 42.7374L128.522 42.8179C128.726 42.9784 128.837 43.0618 129.021 43.2476C129.001 43.6359 129.084 43.5161 128.882 43.712L128.529 43.6993L128.496 43.8221C128.758 44.1442 128.835 44.2454 128.87 44.6527C129.037 46.5389 128.96 48.4377 128.982 50.3402C129.039 53.8117 129.063 57.2836 129.055 60.7555L129.041 88.4449C130.424 89.8692 131.874 91.244 133.269 92.6795L125.345 100.572C124.11 101.805 122.295 103.728 121.025 104.798C119.944 103.965 116.602 100.463 115.401 99.2721L111.064 94.9757C110.455 94.3686 109.29 93.2701 108.792 92.627C110.072 91.247 111.644 89.7702 112.997 88.4387L112.993 49.6409L113.004 40.9627C113.014 38.9338 113.173 35.2088 112.718 33.405C111.946 32.6848 111.369 31.962 110.679 31.3029C106.696 27.5031 102.897 23.4693 98.9923 19.593C98.0307 18.6382 95.4235 15.8692 94.5129 15.2395C94.4252 15.4362 94.5129 26.4828 94.5129 27.8235L94.4966 88.4078L98.6344 92.6311C95.9577 95.5249 92.9661 98.2673 90.2476 101.138C89.0342 102.419 87.6873 103.799 86.4015 105C84.8659 103.581 83.1416 101.754 81.6468 100.237C79.1843 97.7489 76.7351 95.2498 74.2981 92.7373C75.5339 91.3202 77.1695 89.7311 78.5124 88.4037C78.4328 82.8695 78.4869 77.2272 78.4869 71.6866L78.4807 33.7661C77.9515 33.1063 76.938 32.1417 76.3027 31.5019L72.6676 27.8422L60.0592 15.18C59.9593 18.337 60.012 21.6807 60.0128 24.8502L60.0167 40.5853L60.0137 88.4202C61.3104 89.7888 62.8214 91.247 64.1628 92.6105L56.769 100.043C55.3526 101.471 53.4563 103.486 51.9821 104.796C50.9879 103.918 49.8383 102.618 48.8637 101.647L43.159 95.8764C42.3467 95.0529 40.3844 93.2989 39.9481 92.4848L43.9833 88.4192C44.1095 85.5686 44.0026 81.7782 44.0051 78.8503L43.9758 59.6027L43.978 42.5917C43.9792 39.7381 44.0463 36.5734 43.9437 33.7391C43.3938 33.0815 42.2829 32.0333 41.6412 31.3866L37.2735 26.9852C33.4169 23.0992 29.4183 18.9441 25.4892 15.1533L25.4955 34.3129C25.4933 36.8297 25.3543 40.8708 25.5169 43.2708C26.226 44.1526 28.018 45.8441 28.8962 46.7181C30.9311 48.7351 32.9498 50.769 34.952 52.8193C34.2105 53.6718 32.7994 55.0066 31.9531 55.8583C29.7923 58.0184 27.6428 60.1901 25.505 62.3735C25.4397 63.7759 25.4956 65.6102 25.4958 67.0407C25.4732 69.8345 25.4718 72.6285 25.4916 75.4227C25.5072 79.8386 25.3714 84.0434 25.5029 88.4748C26.9165 89.8795 28.2464 91.1667 29.5516 92.6764C28.1463 93.8193 25.9156 96.571 24.7821 97.2934C24.7162 97.079 24.7464 97.1728 24.8591 96.8781C24.7337 96.1402 24.6212 96.1361 25.1713 95.6538L25.2575 95.5796C24.9102 95.5723 24.9016 95.5548 24.5647 95.6847L24.6511 95.9794L24.5761 96.0526C24.1478 95.764 24.0797 95.663 23.6092 95.7208L24.1819 95.9763C25.0525 97.1172 24.569 96.9317 24.0221 97.5974C23.7551 97.6541 23.884 97.6757 23.6255 97.5562L23.5936 97.0935L23.4135 97.0729L23.2538 97.2542C23.0503 97.0378 23.0845 97.0028 23.0013 96.6874C23.204 96.773 23.0962 96.7616 23.3263 96.7039L23.2052 96.5473C22.9049 96.5359 23.0424 96.5751 22.8011 96.3844L22.7273 96.4978C22.7812 97.1316 22.9871 97.7427 23.6329 97.9591C24.2237 97.8654 23.9473 97.8633 24.4844 97.5366C24.2895 97.9117 24.3678 97.7891 23.8542 97.9808C23.7691 98.1344 23.7029 98.29 23.6409 98.4549L23.3746 98.4188C23.0149 98.189 22.8527 97.7046 22.6023 97.2965L22.3701 97.3357C22.3999 97.7891 22.8216 98.1148 22.6792 98.6568C22.6279 98.8516 22.6718 99.1093 22.7234 99.304C22.5792 99.6173 22.4942 99.6575 22.2339 99.8729L22.1456 99.8276C22.2331 99.6864 22.3224 99.5473 22.4133 99.4092C21.8509 98.798 21.3813 98.3642 20.843 97.7046L21.1368 97.6077L21.114 97.4727L20.9061 97.3635C20.702 97.4871 20.7715 97.4686 20.5479 97.5212L20.5043 97.3521C20.3879 96.9183 20.3285 96.8389 19.9923 96.6411L19.8407 96.6957C19.7659 97.3068 20.5241 97.7489 20.9101 98.3868C20.5982 98.19 20.3908 98.0643 20.0627 97.8994L19.9545 97.9756L20.0326 98.2755C20.3754 98.426 20.4435 98.459 20.5826 98.7609C19.7362 98.8465 19.7036 97.6696 19.225 97.1048L18.9419 97.2068L18.7901 97.1306L18.7763 96.9492L19.0224 96.8111L19.0281 96.6833L18.3956 96.301C18.7369 96.3236 19.2213 96.4411 19.373 96.0598L19.0783 96.0464L18.9823 95.9361L19.0548 95.6837C19.2961 95.5023 19.657 95.3023 19.6244 94.9757C19.2854 94.9035 19.0972 94.8242 18.7717 94.9375C18.5486 95.2828 18.6204 95.3807 18.5879 95.8619C18.3178 95.864 18.2625 95.8259 17.9999 95.7455L17.9543 95.5765C18.1523 95.46 18.0927 95.5198 18.2216 95.3291C17.7681 95.2611 18.1283 95.4095 17.5596 95.6259C17.6102 95.0447 18.6499 94.8736 19.3223 94.0832L19.2828 93.9822L18.9841 93.977C18.7999 93.8585 18.618 93.7905 18.6424 93.6338C18.6863 93.3494 17.9299 93.2237 17.7742 92.9032C17.7122 92.7754 17.5323 92.5074 17.3479 92.4631L17.2633 92.6971C17.5351 93.1989 17.4897 93.0392 17.9001 93.3927L17.6516 93.739C17.7159 93.8791 17.7907 93.9966 17.8773 94.1234L17.7662 94.2512L17.6128 93.9945L17.524 94.0296L17.5553 94.4397L17.4339 94.5129L17.1953 94.3923C17.0298 94.1048 16.9862 93.9914 16.7328 93.7709L16.53 93.8152C16.3454 94.1842 16.3195 94.2975 16.517 94.6654C16.8234 94.6521 16.8751 94.6283 17.1696 94.5634C17.4859 94.6747 17.3677 94.5748 17.5302 94.8788L17.4145 94.9849C16.779 94.7427 16.508 95.0334 15.9966 94.6737C15.8549 94.3264 15.8614 94.4964 15.9654 94.145C16.0612 94.0976 16.1572 94.0512 16.253 94.0038L15.7492 93.5267L15.8289 93.3463C15.7922 93.0176 15.809 92.9073 15.6027 92.6496C15.2525 92.5765 15.3423 92.6156 14.9325 92.8403C14.657 92.626 14.2606 92.188 14.1555 91.8437L14.3203 91.7963C14.5818 91.9509 14.8736 92.1148 15.1174 92.2931L15.2392 92.3838C15.5421 92.2189 15.4285 92.3353 15.5823 92.0117C15.4383 91.8757 15.2918 91.7407 15.1428 91.6098C15.0293 91.1079 14.6943 90.3638 14.1398 90.2309C13.9271 90.4669 13.7899 90.4247 13.7021 90.6473L14.2573 91.2316C13.9848 91.1059 13.4415 90.8338 13.2774 90.6102C13.5692 90.1299 13.64 90.1031 13.3358 89.627C12.673 89.424 12.3651 89.9485 11.8493 89.5817L12.1958 89.3869C12.3058 88.9509 12.3334 88.9169 12.2261 88.4975C11.8053 87.9173 11.1261 88.144 10.5721 87.8348C10.694 87.4051 11.017 86.8661 11.3236 86.5373C11.5951 86.5971 11.5421 86.6435 11.7555 86.9558C11.7624 86.7435 11.752 86.5353 11.7493 86.323L11.3089 86.155C11.1369 85.5727 11.5054 86.0499 11.2491 85.3697C10.949 85.0678 10.6072 84.9843 10.2041 84.8297C9.9779 84.4814 9.98055 84.6298 9.99269 84.3123C10.2333 84.1526 10.1672 84.2278 10.3315 84.0032C10.1392 83.7002 10.2676 83.7847 9.98993 83.6487C9.80303 83.8053 9.85881 83.7672 9.63254 83.8857L9.49876 83.729C9.64376 83.222 9.53404 83.7466 9.91081 83.3148C9.72095 82.6088 9.78437 81.7936 10.4513 81.3556L10.4016 81.2093C10.1316 81.2381 9.9933 81.2423 9.72095 81.2402C9.50631 81.0248 9.56892 81.1557 9.55536 80.8249L9.81241 80.8074C10.0553 80.5518 9.96281 80.7074 10.0121 80.2828C9.87635 80.0427 9.55535 79.5037 9.55168 79.2388C9.48643 77.4694 9.63978 75.6463 9.58421 73.8813C9.4644 70.0753 9.59869 66.2032 9.51263 62.4102C8.16923 60.8729 5.84307 58.7284 4.34121 57.1868C3.26985 56.0872 1.05362 53.7311 0 52.8146C2.11039 50.5305 4.50507 48.3235 6.67043 46.0864C7.31546 45.4198 9.03257 43.8332 9.4955 43.1397C9.49316 36.5105 9.35448 29.3552 9.5112 22.7527C10.1184 21.9889 11.4633 20.7104 12.2102 19.9606L17.1344 15.0237L32.0795 0ZM110.553 20.5223C110.799 20.976 110.78 20.7893 110.709 21.2496C111.098 20.8065 111.646 20.6124 111.804 20.3911C111.597 20.2908 111.404 20.185 111.213 20.055C111.043 19.4971 111.42 19.449 111.233 18.8727C111.021 18.6181 110.935 18.7142 110.704 18.5834L110.612 18.9689C110.295 18.8835 110.327 18.8238 110.12 18.9119C110.408 19.2221 110.959 19.9174 111.113 20.2968C110.766 20.2315 110.728 20.1978 110.416 20.0504L110.281 20.1299C110.41 20.4083 110.338 20.3236 110.553 20.5223ZM127.773 35.5958C127.85 35.4652 127.976 35.3245 128.072 35.2063C127.829 35.102 127.817 35.1271 127.548 35.1452L127.47 34.9866C127.605 34.8369 127.676 34.7539 127.783 34.5795C127.577 34.3121 127.6 34.322 127.288 34.205L127.13 34.2898C127.083 34.6305 127.215 34.9929 127.337 35.3157L127.773 35.5958ZM22.121 97.2006C22.0988 96.5483 22.0877 96.0845 21.4918 95.7032C21.4272 96.2639 21.7865 96.6792 22.121 97.2006Z" fill="white"/>
</svg>
