<svg width="2001" height="724" viewBox="0 0 2001 724" fill="none" xmlns="http://www.w3.org/2000/svg">
<g clip-path="url(#clip0_714_168)">
<g filter="url(#filter0_f_714_168)">
<path d="M798.83 72.438C808.254 72.4507 819.999 74.7588 828.283 77.9627C844.649 84.2949 847.507 104.817 845.829 116.443C843.428 133.054 832.407 142.695 817.828 154.709L797.448 171.491C794.764 173.707 792.104 175.994 789.388 178.184C784.706 181.955 781.491 186.192 777.87 190.492L763.559 207.521L746.714 227.525C741.992 233.117 737.096 238.435 733.688 244.532C717.174 274.071 715.231 307.174 712.898 338.571C712.705 341.154 712.645 343.739 712.718 346.305C713.331 368.151 703.662 388.858 698.877 410.178C694.447 430.319 692.501 450.814 688.044 470.972C686.166 479.475 683.464 487.789 681.299 496.253C676.338 515.478 671.825 534.763 667.768 554.097C664.622 569.501 661.303 584.9 658.179 600.313C655.799 612.561 656.218 628.289 647.153 639.22C638.507 649.638 615.678 661.708 599.465 665.657C588.062 668.431 572.871 658.818 562.351 656.663C556.503 655.461 550.407 655.365 544.438 654.595C515.346 651.692 481.499 639.573 473.858 617.797C467.809 600.567 482.943 581.568 493.81 566.883C498.038 561.171 500.416 554.04 504.677 548.227C508.424 543.115 513.143 538.417 515.723 532.955C522.458 517.817 522.082 501.622 530.827 486.847C534.024 481.428 539.409 477.307 544.378 472.693C547.818 469.486 551.002 466.145 553.904 462.684C567.459 446.474 574.531 428.768 583.947 411.429C594.193 392.844 607.035 376.166 609.9 355.918C611.395 345.342 610.414 339.984 595.953 334.012C586.443 330.083 572.58 329.881 562.219 332.026C546.849 335.206 534.594 343.272 522.87 350.615C511.844 357.367 501.981 363.115 492.31 370.996C479.828 381.167 472.945 394.039 465.211 406.354L450.313 429.783C446.666 435.661 442.947 444.139 438.29 449.541C433.146 455.51 423.621 464.336 416.896 469.381C407.577 476.371 382.81 472.675 372.888 468.161C348.755 457.56 344.504 435.624 337.841 417.997C334.474 408.409 330.493 400.163 323.029 391.809C317.432 393.955 314.387 393.676 308.224 393.518C297.962 397.875 300.987 402.934 296.348 408.894C280.456 429.305 269.088 451.021 255.247 472.114C252.136 476.855 250.287 482.391 247.845 487.324C241.632 501.976 234.067 516.889 218.962 528.36C199.533 543.408 155.259 552.898 132.22 537.294C119.633 528.767 107.171 506.216 107.107 493.672C107.05 482.494 109.473 469.964 116.546 459.876C121.496 452.818 130.329 448.785 138.643 443.99C152.926 435.485 160.616 422.846 171.753 412.539C179.62 405.26 178.548 397.962 183.655 390.43C189.458 382.615 198.535 376.415 205.598 369.215C210.042 364.683 213.417 359.673 217.352 354.926C222.937 348.198 229.466 341.889 236.84 336.088C247.567 327.662 257.685 322.968 270.138 315.96C276.81 312.205 284.14 306.844 290.754 302.804C296.18 299.491 303.154 295.564 307.204 291.501C317.473 281.55 318.104 270.014 321.436 258.505C325.591 244.154 328.449 229.411 333.332 215.206C335.394 207.939 349.932 199.708 351.9 193.044C355.659 180.315 357.408 168.797 371.362 158.864C383.348 150.332 402.888 144.161 420.358 144.054C428.027 143.99 435.416 146.086 440.897 149.881C445.563 153.153 448.186 157.417 450.226 161.769C460.098 182.83 450.191 207.382 443.6 228.275C440.332 238.779 437.417 248.867 433.886 259.37C428.53 275.297 420.167 294.515 438.17 308.238C444.789 313.282 458.891 312.148 466.782 309.46C472.263 307.593 478.746 303.418 483.439 300.494C497.034 292.041 509.647 282.83 521.158 272.95C529.196 265.976 536.311 258.372 545.008 251.824C548.544 249.161 552.255 246.595 555.796 243.933C559.891 240.854 563.663 237.572 567.776 234.508C573.442 230.701 580.419 227.923 586.813 224.812C613.678 211.751 631.724 190.502 642.057 169.01C645.549 161.751 648.098 154.297 653.765 147.606C659.245 141.132 668.444 137.204 674.917 131.326C684.938 122.351 692.154 112.09 703.252 103.708C719.755 91.169 741.894 83.9536 764.176 78.0125C777.273 74.5201 784.551 72.8502 798.83 72.438Z" fill="white" fill-opacity="0.4"/>
</g>
</g>
<g clip-path="url(#clip1_714_168)">
<g filter="url(#filter1_f_714_168)">
<path d="M904.332 392.086C913.431 391.211 921.634 391.757 930.462 393.55C935.389 394.43 943.7 398.21 948.418 398.316C969.907 398.799 993.97 388.292 1009.95 404.27C1017.26 411.575 1021.82 425.239 1019.76 434.142C1019.31 436.105 1018.49 438.016 1017.32 439.823C1015.56 442.488 1007.94 450.531 1005.06 452.834C992.856 462.06 973.833 459.306 958.367 457.692C945.08 456.304 934.321 455.271 922.178 451.105C917.315 449.437 908.037 448.034 902.664 447.238C896.253 446.288 887.576 447.445 881.059 447.561C872.296 448.094 858.946 447.744 850.746 449.734C845.064 451.114 838.007 455.915 833.188 458.343C828.187 460.862 823.225 463.241 818.307 465.827C814.33 467.939 810.749 468.875 809.865 472.647C809.92 472.742 809.978 472.837 810.036 472.931C811.311 474.967 814.053 476.239 817.092 476.964C825.062 478.868 835.984 477.669 843.968 476.096C845.735 475.635 847.427 474.947 849.156 474.424C856.703 472.14 864.969 474.739 867.892 480.156C870.405 485.01 869.565 491.163 866.727 495.861C860.549 506.092 845.521 506.775 832.718 510.083C827.23 511.501 821.357 514.06 816.196 515.798C806.408 519.095 795.601 521.531 790.866 529.167C788.892 532.215 789.873 537.431 791.58 540.41C792.348 541.752 793.965 543.945 796.182 544.276C804.637 545.543 817.912 544.995 826.47 544.79C829.849 544.708 840.097 541.274 843.82 540.613C855.559 538.525 867.521 537.903 878.434 534.222C882.963 532.693 886.303 530.862 890.35 528.904C892.34 527.941 895.354 526.895 897.546 525.928C902.772 523.625 907.691 521.421 913.391 519.681C924.024 516.436 936.78 514.718 947.94 517.607C958.831 520.427 962.454 526.747 967.076 533.584C972.036 540.922 970.097 547.069 966.089 554.318C960.645 564.979 946.632 575.541 938.097 585.095C932.18 591.718 916.219 597.391 905.846 599.808C900.951 600.948 894.318 601.322 889.153 601.877C873.212 603.524 858.02 606.03 843.301 610.737C840.994 611.474 837.736 612.758 835.212 612.894C822.989 613.551 810.714 614.099 798.469 614.538C787.673 614.876 776.559 613.74 766.011 615.987C760.583 617.145 756.596 619.601 752.206 621.978L737.774 629.809C730.071 633.965 724.003 637.214 714.175 638.718C701.502 640.657 683.933 635.303 677.98 627.059C672.888 620.01 672.155 607.114 674.124 599.232C675.253 594.711 678.649 588.79 680.875 584.336L691.624 562.415C692.593 560.397 693.311 558.344 694.242 556.366C695.118 554.504 696.037 552.962 696.859 551.035C699.445 544.97 701.476 538.441 704.382 532.489C708.846 523.345 714.129 514.841 714.699 504.964C715.12 497.675 712.123 492.506 706.595 486.539C704.187 483.94 701.668 480.696 700.972 477.569C699.276 469.946 697.485 461.852 699.058 454.143C699.596 451.508 700.768 449.192 701.885 446.704C703.539 443.017 706.022 439.505 709.221 436.357C713.895 431.758 720.155 429.389 726.625 426.305C730.264 424.57 733.45 422.436 737.514 420.974C748.028 417.189 759.408 415.481 770.86 413.883C788.539 411.368 806.433 410.159 824.345 408.807C831.725 408.25 839.905 408.293 847.149 407.292C851.973 406.626 857.28 404.254 861.767 402.894C866.605 401.429 871.566 400.068 876.428 398.636C886.509 395.41 893.445 393.304 904.332 392.086Z" fill="white" fill-opacity="0.4"/>
</g>
</g>
<g filter="url(#filter2_f_714_168)">
<path d="M1313.59 139.523C1325.66 138.369 1348.27 136.932 1357.32 144.063C1379.88 161.839 1365.45 189.788 1382.87 209.008C1388.97 210.586 1394.51 210.719 1400.82 211.159C1432.65 213.372 1453.61 204.324 1481.42 195.497C1490.14 192.731 1501.97 189.562 1510.05 186.251C1524.91 179.84 1539.35 172.921 1554.09 166.377C1561 163.108 1568.75 160.051 1575.48 156.633C1610.94 138.617 1656.48 160.956 1684.96 176.698C1696.42 183.035 1717.15 191.095 1720.87 201.513C1723.19 208.019 1719.74 224.272 1716.79 230.964C1715.05 234.878 1712.65 238.629 1709.64 242.134C1701.84 251.151 1685.41 263.16 1671.2 266.639C1642.44 273.675 1612.92 280.005 1583.93 286.622C1573.7 289.435 1563.78 293.106 1553.62 296.102C1492.02 314.276 1425.14 320.19 1360.41 330.575C1327.3 335.537 1294.54 345.425 1260.6 347.062C1242.85 346.627 1231.63 352.558 1218.12 357.6C1185.95 369.608 1190.24 374.655 1184.71 397.682C1182.32 407.617 1175.21 422.535 1171.48 433.548L1159.75 468.266C1156.48 478.189 1153.64 488.828 1147.61 498.118C1144.49 502.92 1140.67 507.358 1136.83 511.888C1135 514.223 1131.52 517.772 1129.37 520.094C1123.85 526.07 1118.93 531.367 1114.12 537.651L1080.7 582.059C1068.24 598.985 1058.45 617.471 1038.84 631.121C1030.25 637.37 1017.72 638.845 1005.8 638.875C976.084 638.947 963.948 620.01 966.326 601.331C969.676 575.01 988.396 553.496 1005.65 530.83L1023.27 507.549C1025.8 504.26 1029.6 498.982 1032.37 496.034C1043.44 484.232 1057.97 474.965 1065.18 461.251C1069.46 452.928 1072.04 441.163 1070.71 432.298C1068.99 420.709 1069.78 417.723 1076.81 406.93C1082.53 398.158 1089.44 386.905 1089.83 377.148C1090.17 368.827 1084.03 363.831 1084.34 354.587C1081.37 354.138 1077.32 353.134 1074.19 352.559C1067.02 351.248 1059.67 350.47 1052.26 350.238C1032.27 349.534 995.648 355.898 979.299 347.979C972.051 344.469 968.001 339.194 966.429 333.162C957.638 299.423 1036.59 281.577 1069.76 272.124L1142.61 251.432C1150.72 249.116 1163.76 246.044 1170.79 242.917C1171.7 242.511 1181.17 235.925 1182.7 234.893C1190.43 229.705 1198.34 224.323 1205.23 218.572C1212.64 212.394 1216.83 206.31 1222.81 199.684L1246.66 173.449C1251.11 168.526 1256.4 162.667 1260.78 157.826C1269.59 148.08 1298.23 141.545 1313.59 139.523Z" fill="white" fill-opacity="0.4"/>
</g>
<g filter="url(#filter3_f_714_168)">
<path d="M1406.98 345.9C1433.25 344.219 1429.97 359.912 1432.95 372.988C1435.07 382.247 1437.65 390.353 1436.7 399.915C1436.43 407.183 1431.82 413.521 1429.03 420.384C1425.98 427.893 1423.02 436.515 1421.72 444.305C1418.95 461.317 1416.42 478.349 1414.13 495.398C1412.02 510.413 1411.72 526.753 1404.46 540.966C1414.55 549.756 1415.58 563.262 1410.94 573.603C1409.94 575.83 1408.41 578.15 1407.25 580.357C1402.57 589.229 1401.05 598.675 1400.08 608.057C1399.28 614.935 1398.05 623.118 1391.26 628.444C1386.87 631.889 1377.59 634.852 1370.97 635.07C1367.76 635.169 1364.55 634.887 1361.48 634.231C1353.86 632.608 1342.57 627.69 1336.58 624.071C1320.85 614.56 1329.79 598.664 1333.56 586.155C1335.04 581.051 1336.24 575.912 1337.19 570.746C1338.08 566.176 1337.13 561.668 1338.25 557.229C1339.52 552.6 1340.82 547.939 1342.06 543.314C1343.83 536.752 1345.94 530.923 1337.89 525.927C1330.64 521.425 1323.01 522.793 1314.25 522.325C1308.06 521.994 1300.56 520.984 1294.97 519.035C1290.84 517.56 1287.96 515.533 1284.39 513.425C1276.3 508.656 1263.19 506.638 1255.11 512.555C1252.64 514.367 1249.91 518.162 1247.82 520.4C1241.23 527.44 1235.16 534.787 1228.38 541.742C1220.04 550.006 1208.03 557.778 1198.55 565.48C1194.47 568.53 1187.78 573.131 1184.87 576.498C1180.73 581.281 1178.91 588.41 1176.27 593.703C1174.14 597.97 1171.17 602.305 1168.74 606.485L1160.95 619.842C1157.28 626.033 1154.34 631.2 1148.44 636.559C1141.65 642.723 1133.63 647.195 1123.81 650.689C1120.61 651.855 1117.33 653.267 1113.66 653.511C1106.71 653.974 1103.07 651.238 1098.95 647.823C1094.05 643.755 1090.64 639.894 1089.86 634.461C1088.9 627.741 1092.9 621.77 1097.19 616C1099.11 613.378 1100.71 610.613 1102.85 607.941C1103.68 606.904 1106.08 603.959 1106.62 603.028C1107.65 601.247 1109 598.016 1109.85 596.088C1112.57 589.961 1115.24 583.767 1118.21 577.701C1119.25 575.584 1121.69 572.27 1123.21 570.153C1132.34 557.413 1143.66 545.486 1155.93 534.16C1158.44 531.837 1161.86 529.79 1164.68 527.667C1173.57 520.994 1186.22 513.429 1192.82 505.659C1196.98 500.761 1201.46 494.733 1205.39 489.657C1207.75 486.62 1212.45 480.974 1214.36 478.064C1223.12 464.751 1227 453.962 1241.51 442.889C1252.75 434.285 1266.87 428.104 1279.57 420.706C1282.86 418.791 1286.15 416.656 1289.42 414.685C1297.64 409.724 1305.96 404.781 1314.01 399.675C1320.23 395.722 1325.69 391.119 1332.25 387.385C1339.43 383.29 1346.77 379.333 1354.06 375.339C1356.79 373.851 1362.08 371.104 1364.33 369.527C1367.77 367.108 1371.68 363.115 1374.94 360.412C1377.42 358.36 1379.49 356.249 1382.26 354.288C1388.96 349.627 1397.66 346.676 1406.98 345.9ZM1343.81 432.369C1342.61 435.245 1342.18 438.567 1340.83 441.11C1340.21 442.292 1336.84 445.542 1335.81 446.967C1329.59 455.554 1328.34 460.894 1332.45 469.888C1336.08 470.332 1338.9 470.478 1342.6 470.657C1347.42 470.921 1352 471.754 1355.97 469.408C1362.39 465.616 1359.39 461.677 1356.94 457.129C1354.63 452.856 1353.87 448.555 1356.08 444.188C1357.23 441.756 1359.4 439.362 1359.69 436.798C1359.86 434.241 1359.01 431.61 1355.88 430.095L1353.13 429.997C1349.04 430.157 1346.94 430.434 1343.81 432.369Z" fill="white" fill-opacity="0.4"/>
</g>
<g clip-path="url(#clip2_714_168)">
<g filter="url(#filter4_f_714_168)">
<path d="M1842.28 158.962C1853.42 158.093 1872.46 161.3 1880.82 166.433C1886.23 169.758 1889.48 177.845 1891.06 182.745C1901.94 216.461 1874.06 244.406 1852.95 272.617C1829.98 302.736 1794.35 325.066 1764.45 351.483C1747.29 366.649 1729.43 380.641 1716.66 398.055C1714.47 401.036 1713.14 404.373 1711.81 407.596C1701.76 431.659 1676.16 449.37 1663.21 472.511C1659.25 479.582 1652.05 487.684 1647.45 494.677C1644.29 499.476 1632.97 506.747 1640.59 512.136C1644.78 515.099 1654.64 519.087 1660.83 518.998C1670.1 518.969 1678.84 516.05 1688.18 516.053C1714.87 515.316 1739.08 517.537 1761.94 505.616C1766.15 503.418 1773.64 500.166 1777.4 497.611C1782.72 494.004 1787.82 490.457 1793.28 486.89C1815.57 472.121 1843.33 462.131 1873.32 458.08C1881.48 456.971 1889.34 456.65 1897.62 455.782C1917.18 453.731 1937.2 452.419 1957.04 452.7C1968.47 452.874 1982.35 454.207 1990.91 460.071C1996.23 464.114 1991.8 473.184 1993.04 477.519C1995.11 484.724 1996.91 489.466 1996.1 496.912C1995.28 504.398 1991.83 511.01 1990.12 518.27C1988.43 525.441 1988.98 533.051 1986.56 540.19C1985.23 544.508 1982.36 547.851 1979.35 551.636C1970.37 562.849 1957.74 572.905 1943.92 581.268C1939.13 584.165 1930.6 588.365 1925.18 590.823C1903.68 600.567 1880.38 597.965 1856.57 596.513C1834.21 594.86 1809.07 594.633 1787.07 598.154C1776.49 599.848 1767.59 602.813 1756.08 603.79C1742.48 604.942 1729.43 604.904 1715.84 605.916C1703.18 606.858 1691.45 608.792 1679.17 610.474C1666.95 612.144 1659.37 612.316 1647.19 615.72C1636.01 618.848 1627.31 623.02 1616.27 626.099C1610.25 627.775 1604.1 629.887 1598.27 631.485C1588.32 634.219 1578.31 636.356 1568.32 639.275C1558.97 642.006 1545.46 647.435 1535.72 648.492C1526.47 649.498 1514.04 646.951 1504.57 646.75C1484.87 646.335 1463.83 651.503 1446.23 642.046C1444.07 640.891 1442.58 639.06 1440.81 637.682C1421.29 622.478 1427.38 598.745 1438.4 581.741C1441.21 577.254 1444.02 571.937 1447.69 567.774C1466.66 546.287 1485.04 523.972 1505.48 503.203L1521.18 487.277C1529.96 478.278 1538.43 468.709 1544.7 458.699C1549.61 450.863 1550.85 442.357 1557.89 435.301C1561.36 431.828 1565.65 429.826 1569.7 426.789C1572.29 424.58 1575.81 420.893 1578.49 418.432L1601.62 397.22L1623.11 376.91C1624.98 375.154 1626.91 373.41 1628.83 371.679C1638.03 363.357 1645.58 354.164 1653.71 345.363C1667.22 330.742 1683.93 317.58 1697.55 303.032C1717.63 280.452 1743.42 258.907 1746.83 231.332C1747.43 226.393 1746.86 221.802 1748.81 216.998C1752.15 208.768 1758.41 201.752 1764.65 194.522C1768.26 189.19 1770.07 184.944 1775.34 180.252C1781.31 174.937 1785.1 174.325 1792.47 171.065C1809.25 163.651 1822.49 160.178 1842.28 158.962Z" fill="white" fill-opacity="0.4"/>
</g>
</g>
<defs>
<filter id="filter0_f_714_168" x="91.1064" y="56.438" width="771.143" height="625.717" filterUnits="userSpaceOnUse" color-interpolation-filters="sRGB">
<feFlood flood-opacity="0" result="BackgroundImageFix"/>
<feBlend mode="normal" in="SourceGraphic" in2="BackgroundImageFix" result="shape"/>
<feGaussianBlur stdDeviation="8" result="effect1_foregroundBlur_714_168"/>
</filter>
<filter id="filter1_f_714_168" x="657.117" y="375.677" width="379.138" height="279.439" filterUnits="userSpaceOnUse" color-interpolation-filters="sRGB">
<feFlood flood-opacity="0" result="BackgroundImageFix"/>
<feBlend mode="normal" in="SourceGraphic" in2="BackgroundImageFix" result="shape"/>
<feGaussianBlur stdDeviation="8" result="effect1_foregroundBlur_714_168"/>
</filter>
<filter id="filter2_f_714_168" x="949.751" y="122.569" width="787.876" height="532.306" filterUnits="userSpaceOnUse" color-interpolation-filters="sRGB">
<feFlood flood-opacity="0" result="BackgroundImageFix"/>
<feBlend mode="normal" in="SourceGraphic" in2="BackgroundImageFix" result="shape"/>
<feGaussianBlur stdDeviation="8" result="effect1_foregroundBlur_714_168"/>
</filter>
<filter id="filter3_f_714_168" x="1073.72" y="329.776" width="379.186" height="339.787" filterUnits="userSpaceOnUse" color-interpolation-filters="sRGB">
<feFlood flood-opacity="0" result="BackgroundImageFix"/>
<feBlend mode="normal" in="SourceGraphic" in2="BackgroundImageFix" result="shape"/>
<feGaussianBlur stdDeviation="8" result="effect1_foregroundBlur_714_168"/>
</filter>
<filter id="filter4_f_714_168" x="1412.11" y="142.82" width="600.184" height="521.906" filterUnits="userSpaceOnUse" color-interpolation-filters="sRGB">
<feFlood flood-opacity="0" result="BackgroundImageFix"/>
<feBlend mode="normal" in="SourceGraphic" in2="BackgroundImageFix" result="shape"/>
<feGaussianBlur stdDeviation="8" result="effect1_foregroundBlur_714_168"/>
</filter>
<clipPath id="clip0_714_168">
<rect width="763.537" height="665.297" fill="white" transform="matrix(0.995839 0.0911262 -0.18004 0.983659 119.78 0)"/>
</clipPath>
<clipPath id="clip1_714_168">
<rect width="409.876" height="267.501" fill="white" transform="matrix(0.99855 -0.0538237 0.107193 0.994238 603.22 390.635)"/>
</clipPath>
<clipPath id="clip2_714_168">
<rect width="663.639" height="586.747" fill="white" transform="translate(1337.33 122.17)"/>
</clipPath>
</defs>
</svg>
