<svg width="10906" height="2731" viewBox="0 0 10906 2731" fill="none" xmlns="http://www.w3.org/2000/svg">
<path d="M8764.54 1354.55C8759.81 1332.26 8745.01 1317.17 8734.51 1314.12C8724.01 1311.07 8700.04 1321.67 8691.06 1333.3L8607.35 1441.89C8546.55 1541.44 8479.4 1629.98 8406.4 1720.15C8368.93 1766.34 8341.04 1809.21 8289.78 1844.25L8197.16 1964.26C8109.01 2040.99 7907.94 2178.34 7851.65 2144.76C7763.19 2092.03 7850.39 1970.67 7900.84 1890.58L7990.45 1748.3C8084.21 1599.37 8173.86 1558.16 8263.52 1437.11L8378.85 1323.23L8457.16 1183.64C8490 1125.17 8464.32 1083.75 8430.1 1044.68C8393.3 1002.62 8370.74 978.334 8306.58 990.073C8267.25 997.288 8220.63 974.204 8196.83 954.125C8158.11 921.477 8166.57 879.272 8161.26 836.138C8148.43 730.885 8200.26 655.083 8302.16 622.257C8360.11 603.585 8427.29 559.014 8493.37 579.726C8528.13 590.56 8553.63 614.377 8595.94 608.895C8641.58 602.986 8685.92 628.735 8715.52 662.022L8793.63 750.048C8887.98 677.045 8943.65 583.106 9014.33 492.206C9073.11 416.609 9165.6 364.834 9252.64 327.442C9299.55 307.31 9431.83 290.616 9462.97 315.848C9510.08 354.081 9466.63 498.174 9397.66 573.278L9257.87 725.683C9210.7 777.109 9183.53 833.388 9152.38 895.506L9052.01 1009.63C9022.92 1081.64 9048.58 1163.53 9072.73 1233.94L9134.1 1413.15L9235.28 1605.32C9268.78 1669.04 9307 1722 9342.23 1780.14C9381.9 1845.49 9415.68 1883.02 9491.58 1907.59C9537.2 1922.42 9576.63 1954.56 9632.11 1960.82C9670.45 1965.08 9729.87 1992.45 9744.15 2032.16C9784.7 2144.86 9741.03 2272.96 9640.43 2334.23L9393.31 2484.46C9284.38 2550.75 9238.92 2446.25 9149.14 2388.31C9094.81 2353.22 9069.3 2298.25 9032.5 2247.97C8979.25 2175.25 8918.43 2109.23 8888.21 2020.65L8841.73 1715.68C8832.88 1657.77 8807.09 1614.37 8806.56 1551.45L8764.41 1354.37L8764.54 1354.55Z" fill="black"/>
<path d="M9890.28 2357.69C9778.1 2419.26 9696.42 2442.9 9578.04 2430.41L9388.95 2410.39C9245.18 2395.14 9161.6 2293.07 9164.98 2142.26C9166.48 2075.69 9131.94 1985.73 9162.34 1920.57C9204.98 1828.86 9322.32 1833.99 9393.6 1885.72C9426.92 1909.93 9469.82 1909.49 9496.05 1951.12L9697.94 1853.33C9781.97 1812.65 9815.94 1710.64 9810.86 1624.36C9725.98 1584.61 9632.87 1685.15 9521.28 1665.31C9473.74 1656.78 9443.17 1597.86 9440.96 1548.75L9430.89 1328.79C9456.33 1167.59 9560.21 911.293 9659.17 775.639C9846.85 517.586 9979.89 541.385 10127.1 427.542C10200.5 370.801 10325.4 358.767 10394.5 426.279C10436.7 467.613 10421 546.646 10395.3 592.537L10288.7 783.55C10265.2 825.697 10204.7 823.825 10176.8 846.679C10111.2 900.35 10058.5 934.548 9979.39 958.334C9893.61 984.035 9826.69 1045.8 9806.78 1128.93C9830.64 1155.77 9860.16 1196.66 9897.87 1191.6L10078.9 1167.66C10168.5 1155.77 10251.2 1133.58 10340 1142.03C10560.3 1315.75 10615.7 1486.23 10609.8 1764.76C10608.1 1843.29 10596 1940.9 10519 1986.86C10451.1 2027.45 10395 2073.36 10335.4 2125.59C10254.5 2196.47 10143.2 2218.8 10050.1 2269.95L9890.28 2357.69Z" fill="black"/>
<path d="M7170.41 1677.16C7125.37 1729.91 7039.52 1864.82 7023.07 1919.68L6961.77 2124.64L6872.99 2278.85C6850.33 2318.23 6805.63 2347.99 6763.99 2333.74L6744.16 2347.48C6714.9 2367.68 6602.4 2182.66 6684.37 2027.93C6703.62 1991.67 6722.63 1957.63 6744.99 1922.59L6815.76 1811.87C6834.77 1762.6 6858.64 1725.15 6887.03 1682.13C6930.39 1616.47 6945.89 1535.78 6979.45 1464.88C7006.55 1407.79 7028.39 1353.15 7049.27 1293.7C7072.05 1228.56 7116.75 1177.55 7159.27 1124.83L7236.42 1001.21C7256.7 968.699 7289.02 949.231 7306.84 912.517C7344.95 834.247 7411.54 814.383 7440.65 747.755C7460.39 702.495 7495.6 680.431 7533.8 652.994L7626.34 552.58C7735.55 472.007 7828.73 299.517 7953.66 308.035C8029.44 313.178 8058.12 420.374 8060.48 480.15C8063.06 543.495 8086.56 591.466 8079.07 650.244L8050.93 871.598L8045.82 1105.6C8044.16 1181.1 8047.62 1255.46 8025.47 1327.47C8003.32 1399.49 8014.37 1458.81 8044.27 1520.6C8096.55 1628.51 8078.69 1745.72 8033.41 1850.16C7973.16 1989.36 8034.56 2113.39 7863.05 2161.01C7819.06 2173.27 7800.2 2168.68 7765.71 2137.97C7731.21 2107.26 7699.45 2083.18 7691.38 2030.38C7683.98 1982.09 7689.66 1930.14 7687.82 1880.99C7684.45 1788.54 7698.71 1712.6 7725.92 1623.47C7742.74 1568.26 7717.56 1458.91 7652.68 1446.54C7575.06 1431.68 7495.44 1451.62 7426.36 1395.18C7405.87 1378.41 7360.5 1368.46 7338.42 1392.72C7318.8 1414.26 7290.59 1448.39 7284.78 1476.4C7267.21 1560.84 7223.86 1614.35 7170.18 1677.26L7170.41 1677.16ZM7747.13 865.828C7713.96 863.61 7664.07 876.507 7643.03 903.54C7624.99 967.893 7623.36 1050.97 7655.6 1111.35C7680.16 1157.28 7795.07 1042.28 7747.05 865.835L7747.13 865.828Z" fill="black"/>
<path d="M1819.07 58.4343C1844.95 55.1358 1878.35 59.9239 1902.7 69.42C1950.81 88.1906 1968.97 166.853 1970.21 212.588C1971.96 277.932 1946.55 319.279 1912.56 371.103L1865.05 443.499C1858.79 453.057 1852.64 462.882 1846.28 472.349C1835.33 488.654 1828.63 506.248 1820.85 524.228L1790.12 595.429L1753.93 679.078C1743.77 702.468 1733.01 724.854 1726.71 749.735C1696.22 870.288 1707.52 999.502 1716.89 1122.23C1717.66 1132.33 1718.79 1142.39 1720.28 1152.32C1732.94 1236.92 1716.8 1320.75 1714.38 1405.23C1712.34 1485 1717.29 1565.26 1715.19 1645.11C1714.3 1678.79 1711.06 1712.03 1709.37 1745.66C1705.41 1822.06 1702.71 1898.54 1701.29 1975.05C1700.39 2035.97 1699.02 2096.94 1698.19 2157.89C1697.81 2206.29 1706.86 2267.2 1687.47 2312.86C1668.97 2356.38 1612.36 2411.35 1569.84 2432.45C1539.93 2447.27 1493.4 2415.34 1463.43 2410.71C1446.78 2408.13 1429.99 2409.92 1413.22 2409.05C1331.9 2408.11 1232.89 2373.08 1200.97 2291.26C1175.71 2226.51 1207.71 2147.37 1230.16 2086.49C1238.9 2062.81 1241.84 2034.28 1250.62 2010.2C1258.34 1989.02 1268.93 1969.1 1273.27 1946.98C1284.15 1885.81 1274.98 1823.07 1291.57 1762.6C1297.62 1740.42 1310.33 1722.51 1321.65 1702.83C1329.49 1689.16 1336.55 1675.06 1342.78 1660.59C1371.84 1592.84 1382.36 1521.58 1399.5 1450.92C1418.29 1375.12 1445.16 1305.8 1442.85 1226.17C1441.64 1184.58 1436.26 1164.13 1393.56 1146.08C1365.48 1134.2 1327.32 1138.34 1299.95 1150.35C1259.36 1168.16 1229.77 1203.83 1201.27 1236.5C1174.39 1266.64 1150.21 1292.46 1127.62 1326.49C1098.46 1370.41 1086.03 1422.84 1070.99 1473.39L1041.87 1569.65C1034.8 1593.77 1028.86 1628.01 1018.79 1650.64C1007.66 1675.64 985.951 1713.29 970.024 1735.26C947.954 1765.71 878.105 1760.16 848.598 1746.16C777.023 1713.58 754.331 1629.92 727.18 1563.85C713.12 1527.82 698.048 1497.22 673.362 1467.44C659.073 1477.76 650.575 1477.76 633.575 1479.34C607.595 1499.9 618.44 1518.46 608.699 1543.25C575.329 1628.14 448.831 2009.39 421.433 2096.2C415.274 2115.72 412.981 2137.87 408.754 2157.89C399.061 2216.98 385.788 2277.57 350.083 2327.47C304.309 2392.8 187.535 2445.38 116.448 2392.98C77.6077 2364.34 32.0667 2281.21 25.5887 2232.54C19.8152 2189.16 20.1713 2139.65 34.5194 2097.97C44.5597 2068.81 123.865 1922.31 144.279 1900.74C179.215 1862.65 243.096 1645.64 268.489 1601.67C286.43 1570.61 279.82 1542.66 290.056 1511.6C302.058 1479.2 323.863 1451.9 339.632 1421.44C349.556 1402.26 356.304 1381.61 364.72 1361.78C376.672 1333.68 391.425 1306.86 408.754 1281.72C433.968 1245.2 459.386 1223.38 490.052 1191.74C506.482 1174.79 523.909 1151.38 540.038 1133.34C553.267 1118.55 570.44 1100.83 579.517 1083.61C602.707 1041.33 598.642 996.318 602.006 950.45C606.202 893.254 606.642 834.998 612.908 778.113C614.917 749.168 650.691 712.044 652.745 685.474C656.668 634.719 655.684 589.379 688.999 545.856C717.618 508.469 768.159 477.57 816.062 470.947C837.083 467.974 858.423 473.488 875.375 486.272C889.829 497.321 899.173 512.944 906.96 529.114C944.643 607.378 929.781 706.22 922.184 789.68C918.491 831.622 915.558 871.827 911.141 913.857C904.443 977.599 891.139 1055.18 947.458 1102.06C968.162 1119.3 1006.31 1109.88 1026.62 1096.65C1040.73 1087.45 1056.43 1068.94 1067.84 1055.92C1100.91 1018.27 1130.91 978.026 1157.55 935.576C1176.11 905.643 1191.82 873.594 1212.41 845.08C1220.77 833.485 1229.67 822.203 1238.06 810.609C1247.75 797.202 1256.46 783.12 1266.21 769.761C1279.85 752.969 1297.61 739.704 1313.6 725.354C1380.78 665.101 1419.65 576.188 1437.22 489.075C1443.16 459.65 1446.41 429.805 1458.6 401.812C1470.39 374.732 1493.67 356.214 1508.49 331.091C1531.49 292.685 1546.14 250.285 1572.4 213.796C1611.4 159.251 1668.55 123.372 1726.74 92.3895C1760.94 74.1771 1780.08 65.1078 1819.07 58.4343Z" fill="black"/>
<path d="M2623.95 1203.98C2655.02 1199.36 2683.12 1201.64 2713.43 1209.93C2730.34 1213.98 2759.01 1231.91 2775.16 1232.22C2848.71 1233.62 2930.39 1181.73 2986.04 1258.35C3011.49 1293.38 3027.95 1359.3 3021.43 1402.47C3020.02 1411.98 3017.33 1421.27 3013.43 1430.06C3007.57 1443.03 2982.02 1482.28 2972.29 1493.55C2931.11 1538.72 2865.85 1526.22 2812.84 1519.08C2767.3 1512.95 2730.43 1508.41 2688.63 1488.78C2671.89 1480.92 2640.06 1474.54 2621.62 1470.92C2599.63 1466.6 2570.02 1472.57 2547.73 1473.42C2517.78 1476.38 2472.08 1475.26 2444.15 1485.25C2424.8 1492.17 2400.95 1515.71 2384.61 1527.67C2367.66 1540.07 2350.82 1551.8 2334.16 1564.53C2320.68 1574.92 2308.49 1579.6 2305.69 1597.89C2305.89 1598.35 2306.09 1598.81 2306.3 1599.26C2310.79 1609.06 2320.24 1615.09 2330.69 1618.47C2358.07 1627.34 2395.36 1621.06 2422.58 1613.1C2428.6 1610.79 2434.35 1607.39 2440.23 1604.79C2465.91 1593.41 2494.35 1605.62 2504.68 1631.71C2513.58 1655.08 2511.08 1684.89 2501.66 1707.75C2481.15 1757.52 2429.78 1761.48 2386.18 1778.04C2367.49 1785.14 2347.55 1797.78 2330 1806.41C2296.72 1822.79 2259.9 1835.05 2244.17 1872.2C2237.6 1887.03 2241.27 1912.23 2247.3 1926.57C2250.01 1933.03 2255.67 1943.57 2263.28 1945.08C2292.29 1950.84 2337.67 1947.61 2366.93 1946.25C2378.49 1945.7 2413.34 1928.64 2426.04 1925.28C2466.07 1914.67 2506.96 1911.14 2544.07 1892.85C2559.47 1885.26 2570.78 1876.26 2584.51 1866.61C2591.26 1861.86 2601.51 1856.67 2608.95 1851.89C2626.69 1840.53 2643.38 1829.65 2662.77 1820.98C2698.95 1804.82 2742.49 1795.95 2780.85 1809.44C2818.28 1822.61 2831.07 1853.04 2847.3 1885.92C2864.72 1921.21 2858.46 1951.04 2845.2 1986.29C2827.22 2038.11 2779.93 2089.83 2751.32 2136.42C2731.48 2168.73 2677.22 2196.87 2641.88 2209.01C2625.2 2214.74 2602.53 2216.84 2584.9 2219.75C2530.46 2228.41 2478.64 2241.2 2428.57 2264.61C2420.72 2268.28 2409.65 2274.63 2401.03 2275.4C2359.25 2279.11 2317.28 2282.29 2275.42 2284.95C2238.5 2287.05 2200.41 2282.04 2164.46 2293.37C2145.96 2299.21 2132.47 2311.27 2117.6 2322.96L2068.7 2361.48C2042.6 2381.92 2022.04 2397.91 1988.51 2405.61C1945.27 2415.54 1884.83 2390.39 1863.96 2350.77C1846.11 2316.88 1842.81 2254.51 1849.06 2216.29C1852.64 2194.36 1863.9 2165.57 1871.24 2143.92L1906.67 2037.39C1909.86 2027.58 1912.19 2017.61 1915.26 2008C1918.14 1998.95 1921.19 1991.45 1923.88 1982.09C1932.36 1952.63 1938.91 1920.95 1948.48 1892.03C1963.19 1847.59 1980.75 1806.21 1982.09 1758.4C1983.08 1723.11 1972.51 1698.23 1953.23 1669.6C1944.83 1657.12 1936.02 1641.54 1933.44 1626.44C1927.17 1589.63 1920.55 1550.54 1925.46 1513.17C1927.13 1500.4 1931 1489.14 1934.67 1477.05C1940.1 1459.14 1948.38 1442.04 1959.13 1426.67C1974.84 1404.21 1996.11 1392.48 2018.06 1377.27C2030.4 1368.72 2041.17 1358.26 2054.99 1351.01C2090.73 1332.24 2129.56 1323.48 2168.64 1315.25C2228.97 1302.31 2290.12 1295.68 2351.32 1288.36C2376.53 1285.35 2404.52 1285.2 2429.24 1280.05C2445.7 1276.61 2463.71 1264.9 2478.98 1258.13C2495.44 1250.83 2512.33 1244.03 2528.88 1236.89C2563.17 1220.84 2586.77 1210.35 2623.95 1203.98Z" fill="black"/>
<path d="M3908.09 400.091C3941.49 395.572 4004.09 389.948 4029.15 417.865C4091.58 487.454 4051.63 596.873 4099.87 672.118C4116.75 678.293 4132.08 678.816 4149.56 680.537C4237.65 689.2 4295.67 653.779 4372.67 619.223C4396.79 608.396 4429.54 595.988 4451.91 583.025C4493.04 557.927 4533.02 530.839 4573.83 505.223C4592.96 492.425 4614.4 480.457 4633.03 467.073C4731.2 396.545 4857.25 484 4936.07 545.626C4967.81 570.436 5025.19 601.989 5035.47 642.775C5041.89 668.244 5032.35 731.874 5024.18 758.07C5019.38 773.395 5012.74 788.08 5004.4 801.803C4982.8 837.1 4937.34 884.117 4897.98 897.735C4818.39 925.281 4736.65 950.062 4656.43 975.969C4628.09 986.98 4600.63 1001.35 4572.52 1013.08C4402.01 1084.23 4216.86 1107.38 4037.67 1148.04C3946.04 1167.46 3855.34 1206.18 3761.4 1212.58C3712.27 1210.88 3681.22 1234.1 3643.82 1253.84C3554.76 1300.85 3566.63 1320.61 3551.32 1410.76C3544.71 1449.65 3525.05 1508.05 3514.7 1551.17L3482.24 1687.08C3473.17 1725.93 3465.32 1767.58 3448.63 1803.95C3440.01 1822.75 3429.42 1840.12 3418.79 1857.86C3413.72 1867 3404.09 1880.89 3398.15 1889.99C3382.86 1913.38 3369.25 1934.12 3355.92 1958.72L3263.41 2132.57C3228.94 2198.84 3201.84 2271.2 3147.55 2324.65C3123.75 2349.11 3089.08 2354.88 3056.1 2355C2973.83 2355.28 2940.24 2281.15 2946.82 2208.02C2956.09 2104.98 3007.91 2020.75 3055.66 1932.01L3104.44 1840.87C3111.45 1828 3121.98 1807.34 3129.64 1795.79C3160.29 1749.59 3200.49 1713.31 3220.47 1659.62C3232.3 1627.04 3239.44 1580.98 3235.78 1546.27C3231 1500.9 3233.2 1489.21 3252.66 1446.96C3268.48 1412.62 3287.61 1368.56 3288.7 1330.37C3289.63 1297.79 3272.64 1278.23 3273.48 1242.04C3265.28 1240.29 3254.07 1236.36 3245.4 1234.11C3225.54 1228.97 3205.2 1225.93 3184.7 1225.02C3129.36 1222.26 3027.98 1247.18 2982.73 1216.17C2962.66 1202.43 2951.45 1181.78 2947.1 1158.17C2922.77 1026.08 3141.31 956.215 3233.12 919.208L3434.81 838.202C3457.24 829.135 3493.35 817.109 3512.8 804.866C3515.32 803.28 3541.52 777.496 3545.78 773.456C3567.17 753.143 3589.05 732.072 3608.14 709.56C3628.65 685.373 3640.23 661.553 3656.78 635.615L3722.82 532.909C3735.15 513.636 3749.78 490.697 3761.9 471.745C3786.29 433.591 3865.57 408.008 3908.09 400.091Z" fill="black"/>
<path d="M4229.58 1238.31C4300.49 1231.89 4291.64 1291.77 4299.7 1341.67C4305.4 1377 4312.39 1407.93 4309.82 1444.42C4309.09 1472.15 4296.62 1496.34 4289.1 1522.53C4280.87 1551.18 4272.88 1584.08 4269.36 1613.81C4261.88 1678.72 4255.05 1743.72 4248.88 1808.77C4243.17 1866.07 4242.38 1928.42 4222.77 1982.65C4250.01 2016.2 4252.8 2067.73 4240.27 2107.19C4237.58 2115.69 4233.44 2124.55 4230.3 2132.97C4217.67 2166.82 4213.57 2202.87 4210.93 2238.67C4208.79 2264.91 4205.47 2296.14 4187.13 2316.46C4175.27 2329.6 4150.23 2340.91 4132.35 2341.74C4123.69 2342.12 4115.03 2341.04 4106.73 2338.54C4086.15 2332.35 4055.68 2313.58 4039.52 2299.77C3997.04 2263.48 4021.18 2202.82 4031.37 2155.09C4035.34 2135.61 4038.6 2116 4041.15 2096.29C4043.57 2078.85 4040.99 2061.65 4044 2044.71C4047.44 2027.05 4050.96 2009.26 4054.32 1991.61C4059.07 1966.57 4064.78 1944.33 4043.06 1925.27C4023.48 1908.09 4002.86 1913.31 3979.21 1911.52C3962.52 1910.26 3942.26 1906.41 3927.18 1898.97C3916.02 1893.34 3908.25 1885.61 3898.6 1877.56C3876.76 1859.36 3841.37 1851.66 3819.56 1874.24C3812.88 1881.16 3805.51 1895.64 3799.86 1904.18C3782.08 1931.04 3765.7 1959.08 3747.39 1985.62C3724.88 2017.15 3692.46 2046.81 3666.86 2076.2C3655.84 2087.83 3637.77 2105.39 3629.91 2118.24C3618.74 2136.49 3613.84 2163.69 3606.7 2183.89C3600.94 2200.17 3592.95 2216.72 3586.38 2232.67L3565.35 2283.64C3555.44 2307.26 3547.48 2326.98 3531.56 2347.43C3513.23 2370.95 3491.59 2388.01 3465.08 2401.34C3456.44 2405.79 3447.58 2411.18 3437.67 2412.11C3418.89 2413.88 3409.07 2403.44 3397.96 2390.41C3384.73 2374.88 3375.52 2360.15 3373.42 2339.42C3370.83 2313.78 3381.61 2290.99 3393.2 2268.97C3398.38 2258.97 3402.71 2248.42 3408.48 2238.22C3410.71 2234.27 3417.21 2223.03 3418.66 2219.48C3421.44 2212.68 3425.09 2200.35 3427.39 2192.99C3434.72 2169.61 3441.92 2145.98 3449.96 2122.83C3452.76 2114.75 3459.35 2102.1 3463.45 2094.03C3488.11 2045.41 3518.67 1999.9 3551.77 1956.68C3558.56 1947.82 3567.8 1940.01 3575.42 1931.91C3599.4 1906.44 3633.58 1877.58 3651.39 1847.93C3662.62 1829.24 3674.71 1806.24 3685.33 1786.86C3691.68 1775.28 3704.37 1753.73 3709.54 1742.63C3733.19 1691.83 3743.67 1650.66 3782.83 1608.41C3813.18 1575.57 3851.3 1551.99 3885.6 1523.76C3894.48 1516.45 3903.36 1508.3 3912.18 1500.78C3934.39 1481.85 3956.84 1462.99 3978.57 1443.5C3995.38 1428.42 4010.12 1410.86 4027.81 1396.61C4047.2 1380.98 4067.02 1365.88 4086.71 1350.64C4094.07 1344.96 4108.35 1334.48 4114.41 1328.46C4123.72 1319.23 4134.27 1304 4143.08 1293.68C4149.77 1285.85 4155.35 1277.8 4162.84 1270.31C4180.92 1252.53 4204.4 1241.27 4229.58 1238.31ZM4059.02 1568.26C4055.79 1579.24 4054.62 1591.91 4050.99 1601.62C4049.3 1606.13 4040.21 1618.53 4037.43 1623.96C4020.64 1656.73 4017.27 1677.11 4028.37 1711.43C4038.17 1713.12 4045.76 1713.68 4055.75 1714.37C4068.77 1715.37 4081.13 1718.55 4091.85 1709.6C4109.18 1695.13 4101.1 1680.1 4094.46 1662.74C4088.23 1646.44 4086.19 1630.03 4092.14 1613.36C4095.25 1604.08 4101.1 1594.95 4101.91 1585.16C4102.36 1575.4 4100.05 1565.37 4091.63 1559.58L4084.18 1559.21C4073.14 1559.82 4067.48 1560.88 4059.02 1568.26Z" fill="black"/>
<path d="M5558.04 437.782C5588.9 434.378 5641.6 446.933 5664.72 467.028C5679.71 480.046 5688.71 511.705 5693.08 530.891C5723.2 662.885 5646.02 772.284 5587.58 882.729C5524 1000.64 5425.38 1088.06 5342.62 1191.48C5295.12 1250.85 5245.67 1305.63 5210.32 1373.81C5204.27 1385.47 5200.58 1398.54 5196.89 1411.16C5169.08 1505.36 5098.22 1574.7 5062.35 1665.29C5051.39 1692.97 5031.47 1724.69 5018.73 1752.07C5009.99 1770.86 4978.64 1799.32 4999.74 1820.42C5011.34 1832.02 5038.63 1847.63 5055.79 1847.28C5081.44 1847.17 5105.64 1835.74 5131.49 1835.75C5205.37 1832.87 5272.38 1841.56 5335.65 1794.89C5347.32 1786.29 5368.05 1773.56 5378.46 1763.56C5393.17 1749.43 5407.29 1735.55 5422.4 1721.59C5484.11 1663.77 5560.94 1624.66 5643.98 1608.8C5666.57 1604.46 5688.33 1603.2 5711.24 1599.8C5765.37 1591.77 5820.81 1586.63 5875.73 1587.73C5907.36 1588.42 5945.77 1593.63 5969.47 1616.59C5984.21 1632.42 5971.94 1667.93 5975.38 1684.9C5981.11 1713.11 5986.08 1731.67 5983.83 1760.82C5981.57 1790.13 5972.03 1816.01 5967.3 1844.43C5962.61 1872.51 5964.14 1902.3 5957.44 1930.25C5953.74 1947.15 5945.81 1960.24 5937.49 1975.06C5912.6 2018.96 5877.67 2058.33 5839.4 2091.06C5826.14 2102.4 5802.54 2118.85 5787.52 2128.47C5728 2166.62 5663.52 2156.43 5597.6 2150.75C5535.7 2144.27 5466.12 2143.39 5405.22 2157.17C5375.94 2163.8 5351.31 2175.41 5319.43 2179.23C5281.8 2183.74 5245.67 2183.6 5208.04 2187.56C5173 2191.25 5140.55 2198.82 5106.54 2205.4C5072.71 2211.94 5051.73 2212.61 5018.03 2225.94C4987.08 2238.19 4962.97 2254.52 4932.42 2266.57C4915.77 2273.14 4898.73 2281.4 4882.6 2287.66C4855.05 2298.36 4827.35 2306.73 4799.69 2318.16C4773.82 2328.85 4736.41 2350.1 4709.45 2354.24C4683.85 2358.18 4649.44 2348.2 4623.23 2347.42C4568.69 2345.79 4510.46 2366.03 4461.72 2329C4455.75 2324.48 4451.63 2317.32 4446.74 2311.92C4392.69 2252.4 4409.57 2159.48 4440.06 2092.92C4447.85 2075.35 4455.62 2054.53 4465.78 2038.24C4518.28 1954.12 4569.18 1866.75 4625.76 1785.45L4669.21 1723.1C4693.5 1687.87 4716.95 1650.41 4734.31 1611.22C4747.91 1580.54 4751.35 1547.24 4770.83 1519.62C4780.42 1506.02 4792.29 1498.18 4803.53 1486.29C4810.69 1477.65 4820.42 1463.21 4827.85 1453.58L4891.87 1370.54L4951.37 1291.02C4956.54 1284.15 4961.88 1277.32 4967.18 1270.55C4992.65 1237.97 5013.56 1201.98 5036.07 1167.52C5073.46 1110.28 5119.71 1058.75 5157.41 1001.8C5213 913.402 5284.39 829.056 5293.82 721.103C5295.51 701.768 5293.91 683.794 5299.31 664.986C5308.56 632.767 5325.88 605.301 5343.15 576.996C5353.15 556.119 5358.15 539.497 5372.75 521.128C5389.29 500.322 5399.76 497.927 5420.18 485.162C5466.62 456.138 5503.26 442.543 5558.04 437.782Z" fill="black"/>
</svg>
