<svg width="164" height="37" viewBox="0 0 164 37" fill="none" xmlns="http://www.w3.org/2000/svg">
<path d="M146.267 9.86518C147.178 9.8004 146.922 10.1757 146.856 10.6761C146.776 11.2797 146.326 11.8213 145.917 12.3358C145.636 12.6887 145.341 13.0359 144.989 13.3575C144.789 13.5601 144.444 13.7481 144.253 13.947C143.289 14.9505 141.55 15.8999 140.883 17.0072C141.113 17.815 141.336 18.5454 141.765 19.3165C142.118 19.9489 142.534 20.5607 142.855 21.2051C142.957 21.4109 142.907 21.5963 142.99 21.8022C143.063 21.9855 143.458 22.1312 143.547 22.2789C143.712 22.5541 143.711 22.8755 143.836 23.1858C144.096 23.3103 144.419 23.3382 144.644 23.5086C144.825 23.6458 145.053 24.094 145.253 24.1562C145.791 24.3242 146.946 23.9592 147.9 24.3664C148.156 24.4756 148.222 24.6891 148.461 24.8079C148.69 24.9215 148.979 24.9566 149.199 25.0861C149.495 25.2595 149.733 25.5131 149.96 25.7319C151.037 26.7706 150.756 26.8979 150.917 28.0576C150.991 28.5937 151.446 28.9266 152.005 29.2499C152.554 29.5681 153.115 29.769 153.852 29.7083C154.095 29.6883 154.342 29.6406 154.58 29.6022C155.534 29.4488 155.969 29.2248 156.567 28.6868C157.14 28.1725 158.938 26.4851 158.823 25.8581C158.77 25.5661 158.582 25.2058 158.381 24.9488C158.052 24.5283 157.328 24.0527 156.914 23.6123C156.696 23.3799 156.534 22.9945 156.222 22.8295C155.612 22.5072 154.106 23.137 153.501 23.3168C152.945 23.4816 151.519 23.8912 150.978 23.9472C150.473 23.9995 149.89 23.8554 149.368 23.85C148.825 23.8444 148.254 23.9802 147.717 23.9271C147.433 23.8981 147.164 23.8174 146.937 23.6928C146.006 23.1813 145.934 22.2323 146.03 21.4668C146.117 20.7676 146.031 20.6755 146.71 20.1054C147.706 19.2696 149.106 18.9659 150.37 18.3851C151.031 18.0813 151.476 17.5756 152.092 17.2302C152.505 16.9942 152.818 16.9725 153.186 16.808C153.397 16.7138 153.835 16.4471 154.069 16.324C154.618 16.0365 155.202 15.7509 155.726 15.4442C155.872 15.3591 156.078 15.0913 156.206 14.9915C156.433 14.8072 156.76 14.6665 157.014 14.5048C157.508 14.1896 157.871 13.8895 158.494 13.6876C158.946 13.5359 159.371 13.3328 159.846 13.2184C161.04 12.9309 162.612 13.085 162.761 14.1672C162.81 14.5274 162.688 14.8089 162.602 15.1539C162.404 15.9431 162.056 16.611 161.305 17.2236C160.746 17.6859 160.329 17.8527 159.54 18.0643C159.308 18.1462 158.923 18.3404 158.663 18.3498C156.999 18.4101 156.787 18.2234 155.625 19.2021C155.363 19.4223 155.103 19.6439 154.846 19.867C155.612 20.119 155.876 19.8373 156.613 19.7129C157.302 19.5964 158.042 19.5813 158.71 19.4021C159.142 19.2862 159.498 19.0484 159.91 18.9029C160.847 18.5544 161.352 18.7025 162.166 19.0795C162.291 19.1373 162.675 19.1791 162.797 19.2646C163.209 19.55 163.551 20.1622 163.567 20.5781C163.601 21.4838 163.348 22.441 163.336 23.3511C163.334 23.4859 163.338 23.7791 163.378 23.9003C163.608 24.6034 163.699 24.9907 163.378 25.6852C163.935 26.4743 163.653 27.0544 163.314 27.8346C163.113 28.2563 163.002 28.7694 162.768 29.1759C162.219 30.1332 161.684 31.0049 160.905 31.8785C160.237 32.6266 159.908 33.2692 158.708 33.7165C157.78 34.0626 157.155 34.2459 156.086 34.3223C155.397 34.3783 154.434 34.1946 153.748 34.0506C152.787 33.6249 151.54 33.4942 150.597 33.1579C149.525 32.7752 149.104 32.2301 148.581 31.5187C148.334 31.183 148.063 30.8568 147.767 30.5415C147.52 30.2769 147.3 30.0502 146.938 29.8571C146.337 29.6538 145.8 29.7585 145.171 29.7167C144.735 29.6877 143.196 29.3181 142.86 29.1311C142.408 28.8794 141.59 27.6687 141.385 27.2612C141.214 26.9209 141.199 26.5418 141.062 26.1919C140.913 25.8141 140.672 25.4555 140.517 25.0786C140.124 24.1218 138.323 19.0721 137.539 18.6549C137.431 18.5977 137.31 18.5946 137.182 18.6106C136.306 18.72 135.695 19.947 135.277 20.4103C134.955 20.767 134.51 21.0811 134.24 21.4602C133.991 21.8118 133.929 22.2191 133.605 22.5486C133.339 22.8196 132.932 23.0419 132.582 23.2567C131.553 23.888 130.469 24.459 129.387 25.0426C128.737 25.3934 128.098 25.7797 127.405 26.0863C127.121 26.2126 126.811 26.3388 126.476 26.3783C126.104 26.422 125.836 26.3463 125.536 26.1963C124.972 26.4405 124.483 26.4272 123.839 26.333C123.687 26.3107 123.384 26.2244 123.263 26.1416C122.797 25.8135 122.322 25.3804 122.072 24.9469C121.94 24.718 122.054 24.2155 121.561 24.1553C121.145 24.1044 120.675 24.2339 120.275 24.3167C120.081 24.3724 119.566 24.4418 119.418 24.5309C118.764 24.9246 118.25 25.0844 117.477 25.3187C116.34 25.6629 115.485 25.9244 114.231 25.6897C113.435 25.5407 112.676 25.3581 111.956 25.0686C111.74 24.9834 111.476 24.7756 111.264 24.7176C110.565 24.5261 109.637 24.4975 109.19 23.9803C109.05 23.8201 109.001 23.6281 109.053 23.4432C109.149 23.0857 109.579 22.8111 109.75 22.4636C109.995 21.9644 110.013 21.4535 110.19 20.9478C110.346 20.5006 111.015 19.8579 111.456 19.5154C112 19.0927 112.691 18.7337 113.305 18.3621C113.698 18.1242 114.08 17.8477 114.499 17.637C114.668 17.5524 114.863 17.4933 115.04 17.4175C115.385 17.2698 117.849 15.6109 118.017 15.3848C118.332 14.9595 118.383 14.4249 118.546 13.9613C118.651 13.662 118.838 13.3692 118.992 13.0809C119.385 12.3494 119.265 12.4 120.245 12.0753C120.519 11.9844 120.775 11.8529 121.034 11.7417C121.666 11.4707 122.987 10.9858 123.739 11.1283C124.133 11.2029 124.391 11.4697 124.722 11.6221C125.058 11.7768 125.467 11.8242 125.757 12.0346C126.072 12.2635 126.204 12.5847 126.455 12.8454C126.656 13.0549 126.968 13.2188 127.146 13.4368C127.361 13.6995 127.471 14.4555 127.442 14.7645C127.434 14.8577 127.395 14.9544 127.363 15.0447C128.984 16.8396 128.197 17.3139 126.676 18.9373C126.3 19.3386 126.016 20.2902 126.004 20.7801C125.993 21.2503 126.203 21.9491 126.287 22.4296C126.304 22.5235 126.454 22.6676 126.464 22.7396C126.51 23.064 126.516 23.2304 126.629 23.5542C126.956 23.1313 127.262 23.056 127.672 22.7228C128.143 22.3398 128.568 21.8558 129.063 21.4838C129.317 21.286 129.711 21.137 129.969 20.9488C130.517 20.5493 131.05 20.1339 131.618 19.7477C131.788 19.6325 132.099 19.1473 132.252 19.0876C132.805 18.8709 133.092 18.6606 133.484 18.3062C133.789 18.0414 134.132 17.8385 134.391 17.5292C134.37 17.3189 134.467 16.8143 134.383 16.7272C133.817 16.1394 131.976 16.3526 131.179 16.1784C130.847 16.1058 130.661 15.7683 130.547 15.5806L130.614 15.2907C129.927 14.8269 130.269 14.6084 130.376 14.0239C130.47 13.5171 130.311 13.0685 130.977 12.707C131.947 12.1806 133.218 11.9885 134.418 12.0395C134.751 12.0542 135.319 12.2048 135.595 12.3647C136.061 12.7611 136.686 12.5953 137.145 13.008C137.405 13.2415 137.396 13.4464 137.612 13.6859C137.72 13.8059 138.125 13.8716 138.276 13.7556C138.461 13.6118 138.718 13.2195 138.911 13.1032C139.96 12.4732 140.722 11.6772 141.643 10.9634C141.996 10.6898 142.53 10.4 142.936 10.1571C143.27 10.1465 143.796 10.0906 144.14 10.0598L146.267 9.86518ZM117.815 22.4548C118.117 22.4195 118.144 22.3686 118.35 22.331C119.155 22.1839 119.648 21.9605 120.238 21.5525C120.35 21.4754 120.642 21.2082 120.723 21.1744C121.321 20.924 121.99 20.7143 122.519 20.3802C122.507 20.2184 122.449 19.8223 122.481 19.6796C122.601 19.1654 123.023 18.6362 123.01 18.1157C123.008 18.053 122.846 17.8534 122.803 17.7816C122.644 17.5167 122.603 17.3218 122.122 17.3432C122.095 17.3445 122.068 17.3458 122.041 17.3474C121.199 17.6261 120.406 18.4682 119.923 19.0111C119.722 19.2369 119.477 19.5503 119.208 19.7386C118.543 20.204 117.169 20.5664 116.788 21.1741C116.714 21.2914 116.69 21.4919 116.689 21.621C116.843 21.8014 116.996 21.9875 117.155 22.1656C117.405 22.4458 117.339 22.4857 117.815 22.4548Z" fill="#1A1A1A"/>
<g clip-path="url(#clip0_714_167)">
<path d="M37.4623 3.59495C37.946 3.59561 38.5489 3.71407 38.9741 3.87852C39.8141 4.20354 39.9608 5.25689 39.8747 5.85363C39.7514 6.70622 39.1857 7.20107 38.4375 7.81771L37.3914 8.67908C37.2537 8.79283 37.1171 8.91023 36.9777 9.02262C36.7374 9.21619 36.5724 9.43369 36.3865 9.65438L35.652 10.5284L34.7874 11.5552C34.545 11.8422 34.2937 12.1152 34.1188 12.4281C33.2712 13.9443 33.1715 15.6434 33.0517 17.2549C33.0418 17.3875 33.0388 17.5202 33.0425 17.6518C33.074 18.7732 32.5776 19.836 32.3321 20.9303C32.1047 21.9641 32.0048 23.0161 31.776 24.0507C31.6797 24.4872 31.541 24.9139 31.4299 25.3483C31.1752 26.3351 30.9436 27.3249 30.7353 28.3173C30.5739 29.108 30.4035 29.8983 30.2432 30.6894C30.121 31.3181 30.1425 32.1254 29.6772 32.6865C29.2335 33.2212 28.0617 33.8407 27.2296 34.0434C26.6443 34.1858 25.8646 33.6924 25.3246 33.5817C25.0245 33.5201 24.7116 33.5151 24.4052 33.4756C22.912 33.3266 21.1748 32.7045 20.7826 31.5869C20.4721 30.7025 21.2489 29.7273 21.8066 28.9736C22.0237 28.6804 22.1457 28.3144 22.3644 28.016C22.5567 27.7536 22.7989 27.5125 22.9314 27.2321C23.277 26.4551 23.2578 25.6239 23.7066 24.8655C23.8707 24.5874 24.1471 24.3758 24.4021 24.139C24.5787 23.9744 24.7421 23.8029 24.8911 23.6253C25.5868 22.7933 25.9498 21.8845 26.4331 20.9945C26.959 20.0406 27.6181 19.1845 27.7652 18.1453C27.8419 17.6024 27.7916 17.3274 27.0493 17.0209C26.5612 16.8192 25.8496 16.8089 25.3179 16.9189C24.529 17.0822 23.8999 17.4962 23.2982 17.8731C22.7322 18.2197 22.226 18.5147 21.7297 18.9192C21.089 19.4412 20.7357 20.1019 20.3387 20.734L19.5741 21.9366C19.3869 22.2383 19.196 22.6734 18.957 22.9507C18.693 23.2571 18.2041 23.7101 17.8589 23.969C17.3806 24.3278 16.1094 24.1381 15.6001 23.9064C14.3614 23.3623 14.1433 22.2364 13.8012 21.3316C13.6284 20.8395 13.4241 20.4163 13.041 19.9875C12.7537 20.0976 12.5974 20.0833 12.2811 20.0752C11.7544 20.2988 11.9096 20.5585 11.6715 20.8644C10.8559 21.9121 10.2724 23.0267 9.56195 24.1093C9.40226 24.3527 9.30739 24.6368 9.18202 24.89C8.86312 25.6421 8.47488 26.4075 7.69955 26.9963C6.70235 27.7687 4.4299 28.2558 3.24739 27.4548C2.60132 27.0172 1.9617 25.8597 1.95843 25.2159C1.95549 24.6421 2.07987 23.9989 2.44289 23.4812C2.69693 23.1189 3.15034 22.9119 3.57705 22.6658C4.31013 22.2293 4.70487 21.5805 5.27647 21.0515C5.68029 20.6779 5.62525 20.3033 5.88739 19.9167C6.18522 19.5155 6.65114 19.1973 7.01361 18.8278C7.24174 18.5952 7.41496 18.338 7.61691 18.0944C7.90358 17.749 8.23869 17.4252 8.61718 17.1275C9.16777 16.6949 9.68708 16.454 10.3263 16.0943C10.6687 15.9016 11.0449 15.6264 11.3844 15.4191C11.6629 15.249 12.0209 15.0475 12.2288 14.8389C12.7558 14.3281 12.7882 13.736 12.9592 13.1453C13.1725 12.4087 13.3192 11.652 13.5698 10.9229C13.6756 10.5499 14.4218 10.1274 14.5228 9.78537C14.7158 9.13203 14.8056 8.54084 15.5218 8.03101C16.137 7.59305 17.1399 7.27632 18.0366 7.27082C18.4302 7.26754 18.8095 7.37514 19.0908 7.56989C19.3303 7.73787 19.4649 7.95673 19.5696 8.18008C20.0763 9.26111 19.5678 10.5213 19.2295 11.5937C19.0618 12.1328 18.9121 12.6506 18.7309 13.1897C18.456 14.0072 18.0268 14.9936 18.9508 15.698C19.2905 15.9569 20.0143 15.8987 20.4194 15.7607C20.7007 15.6649 21.0334 15.4506 21.2743 15.3005C21.9721 14.8666 22.6195 14.3939 23.2103 13.8867C23.6229 13.5288 23.9881 13.1385 24.4345 12.8024C24.6159 12.6657 24.8064 12.534 24.9882 12.3973C25.1984 12.2393 25.392 12.0709 25.603 11.9136C25.8939 11.7182 26.252 11.5756 26.5802 11.4159C27.9591 10.7456 28.8853 9.65488 29.4157 8.55176C29.5949 8.17916 29.7258 7.79658 30.0166 7.45312C30.2979 7.12085 30.77 6.91925 31.1023 6.61752C31.6166 6.15685 31.987 5.63021 32.5566 5.19995C33.4037 4.55637 34.54 4.18602 35.6836 3.88108C36.3559 3.70182 36.7295 3.61611 37.4623 3.59495Z" fill="#1A1A1A"/>
</g>
<g clip-path="url(#clip1_714_167)">
<path d="M43.3883 19.9124C43.8554 19.8676 44.2764 19.8956 44.7295 19.9876C44.9823 20.0328 45.4089 20.2268 45.6511 20.2322C46.7541 20.257 47.9891 19.7177 48.8094 20.5379C49.1844 20.9128 49.4187 21.6141 49.3127 22.0711C49.2897 22.1718 49.2476 22.2699 49.1875 22.3627C49.0971 22.4995 48.7064 22.9123 48.5583 23.0305C47.932 23.5041 46.9556 23.3627 46.1618 23.2798C45.4798 23.2086 44.9276 23.1556 44.3043 22.9418C44.0547 22.8561 43.5785 22.7841 43.3027 22.7433C42.9736 22.6945 42.5283 22.7539 42.1938 22.7598C41.744 22.7872 41.0588 22.7692 40.6379 22.8714C40.3463 22.9422 39.9841 23.1887 39.7367 23.3133C39.4801 23.4426 39.2253 23.5647 38.9729 23.6974C38.7688 23.8058 38.585 23.8538 38.5396 24.0475C38.5425 24.0523 38.5454 24.0572 38.5484 24.062C38.6139 24.1666 38.7546 24.2318 38.9106 24.2691C39.3196 24.3668 39.8802 24.3052 40.29 24.2245C40.3807 24.2008 40.4676 24.1655 40.5563 24.1387C40.9437 24.0214 41.3679 24.1548 41.518 24.4329C41.647 24.682 41.6038 24.9978 41.4582 25.239C41.1411 25.7641 40.3697 25.7991 39.7126 25.969C39.4309 26.0417 39.1295 26.1731 38.8646 26.2623C38.3622 26.4315 37.8075 26.5566 37.5645 26.9485C37.4631 27.1049 37.5135 27.3727 37.6011 27.5256C37.6405 27.5944 37.7235 27.707 37.8373 27.724C38.2713 27.789 38.9526 27.7609 39.3919 27.7504C39.5654 27.7462 40.0914 27.5699 40.2824 27.536C40.8849 27.4288 41.4989 27.3969 42.059 27.2079C42.2915 27.1295 42.4629 27.0355 42.6707 26.935C42.7728 26.8856 42.9275 26.8319 43.04 26.7822C43.3083 26.664 43.5607 26.5509 43.8533 26.4616C44.399 26.295 45.0538 26.2069 45.6265 26.3552C46.1856 26.4999 46.3715 26.8243 46.6088 27.1752C46.8634 27.5519 46.7638 27.8674 46.5581 28.2394C46.2787 28.7866 45.5594 29.3288 45.1214 29.8191C44.8177 30.1591 43.9984 30.4503 43.466 30.5743C43.2148 30.6328 42.8743 30.652 42.6092 30.6805C41.791 30.7651 41.0113 30.8937 40.2558 31.1353C40.1374 31.1731 39.9701 31.239 39.8406 31.246C39.2133 31.2797 38.5832 31.3079 37.9547 31.3304C37.4006 31.3477 36.8301 31.2894 36.2887 31.4048C36.0101 31.4642 35.8055 31.5903 35.5802 31.7123L34.8394 32.1142C34.4441 32.3275 34.1326 32.4943 33.6282 32.5715C32.9777 32.671 32.0759 32.3962 31.7704 31.9731C31.5091 31.6112 31.4714 30.9493 31.5725 30.5448C31.6304 30.3127 31.8047 30.0088 31.919 29.7802L32.4707 28.6551C32.5204 28.5514 32.5573 28.4461 32.6051 28.3445C32.65 28.249 32.6972 28.1698 32.7394 28.0709C32.8721 27.7596 32.9764 27.4245 33.1255 27.119C33.3546 26.6497 33.6258 26.2132 33.655 25.7062C33.6766 25.3321 33.5228 25.0668 33.2391 24.7605C33.1155 24.6271 32.9862 24.4606 32.9505 24.3001C32.8634 23.9088 32.7715 23.4934 32.8522 23.0977C32.8799 22.9624 32.94 22.8436 32.9973 22.7159C33.0823 22.5266 33.2097 22.3464 33.3739 22.1848C33.6138 21.9487 33.9351 21.8271 34.2672 21.6688C34.454 21.5798 34.6175 21.4703 34.8261 21.3952C35.3657 21.2009 35.9498 21.1133 36.5376 21.0313C37.445 20.9022 38.3635 20.8401 39.2829 20.7707C39.6616 20.7421 40.0815 20.7444 40.4533 20.693C40.7009 20.6588 40.9733 20.537 41.2036 20.4672C41.4519 20.392 41.7065 20.3222 41.9561 20.2487C42.4735 20.0831 42.8295 19.975 43.3883 19.9124Z" fill="#1A1A1A"/>
</g>
<path d="M63.8794 7.03984C64.4987 6.9806 65.6594 6.90686 66.124 7.27288C67.2817 8.18524 66.5409 9.61981 67.4353 10.6063C67.7483 10.6873 68.0327 10.6942 68.3567 10.7167C69.9902 10.8303 71.0659 10.3659 72.4936 9.91285C72.941 9.77089 73.5482 9.60821 73.9631 9.43826C74.7256 9.1092 75.467 8.75405 76.2236 8.41821C76.5783 8.25041 76.9759 8.09351 77.3214 7.91804C79.1415 6.99336 81.4789 8.13995 82.9403 8.94792C83.5288 9.27321 84.5929 9.68689 84.7835 10.2216C84.9025 10.5556 84.7256 11.3898 84.5741 11.7333C84.4851 11.9342 84.3619 12.1267 84.2073 12.3066C83.8068 12.7694 82.9638 13.3858 82.2342 13.5644C80.7582 13.9255 79.2427 14.2504 77.7551 14.5901C77.2297 14.7344 76.7206 14.9229 76.1994 15.0766C73.0376 16.0095 69.6047 16.313 66.2822 16.8461C64.5832 17.1007 62.9013 17.6083 61.1594 17.6923C60.2485 17.67 59.6727 17.9744 58.9793 18.2332C57.3279 18.8495 57.548 19.1086 57.2641 20.2905C57.1416 20.8004 56.777 21.5661 56.585 22.1314L55.9832 23.9134C55.8152 24.4227 55.6695 24.9688 55.3601 25.4456C55.2002 25.6921 55.0039 25.9199 54.8068 26.1524C54.7128 26.2722 54.5342 26.4544 54.4241 26.5736C54.1406 26.8803 53.8883 27.1522 53.6411 27.4747L51.9256 29.7541C51.2864 30.6229 50.784 31.5717 49.7773 32.2723C49.3362 32.5931 48.6932 32.6688 48.0817 32.6703C46.5562 32.674 45.9333 31.702 46.0554 30.7433C46.2273 29.3923 47.1882 28.288 48.0735 27.1246L48.9781 25.9297C49.1079 25.7609 49.3033 25.49 49.4452 25.3386C50.0136 24.7329 50.7591 24.2572 51.1294 23.5533C51.3488 23.1261 51.4812 22.5223 51.4133 22.0672C51.3246 21.4724 51.3654 21.3191 51.7264 20.7652C52.0197 20.3149 52.3744 19.7373 52.3946 19.2365C52.4118 18.8095 52.0968 18.553 52.1125 18.0785C51.9604 18.0555 51.7526 18.004 51.5917 17.9745C51.2234 17.9071 50.8462 17.8672 50.4663 17.8553C49.4401 17.8192 47.5604 18.1458 46.7212 17.7394C46.3492 17.5592 46.1413 17.2885 46.0607 16.9788C45.6094 15.2471 49.6618 14.3311 51.3641 13.8459L55.1037 12.7838C55.5197 12.665 56.1892 12.5073 56.5498 12.3468C56.5966 12.326 57.0824 11.9879 57.1613 11.935C57.5581 11.6686 57.9637 11.3924 58.3177 11.0972C58.698 10.7801 58.9128 10.4678 59.2196 10.1278L60.4442 8.7812C60.6726 8.52851 60.9441 8.22776 61.1687 7.97929C61.6209 7.47906 63.091 7.14365 63.8794 7.03984Z" fill="#1A1A1A"/>
<g clip-path="url(#clip2_714_167)">
<path d="M68.6729 17.6315C70.021 17.5453 69.8528 18.3507 70.0059 19.0219C70.1143 19.4971 70.2471 19.9132 70.1984 20.404C70.1844 20.777 69.9475 21.1024 69.8044 21.4546C69.6479 21.84 69.4961 22.2826 69.4291 22.6824C69.2869 23.5556 69.157 24.4298 69.0397 25.3049C68.9313 26.0756 68.9163 26.9143 68.5433 27.6438C69.0613 28.095 69.1143 28.7882 68.8762 29.3189C68.8249 29.4332 68.7463 29.5524 68.6865 29.6656C68.4465 30.121 68.3685 30.6059 68.3184 31.0874C68.2776 31.4404 68.2145 31.8604 67.8659 32.1338C67.6404 32.3106 67.1643 32.4627 66.8244 32.4739C66.6598 32.479 66.4951 32.4645 66.3373 32.4309C65.946 32.3476 65.3668 32.0951 65.0596 31.9093C64.252 31.4212 64.7109 30.6053 64.9046 29.9632C64.9801 29.7013 65.0421 29.4375 65.0906 29.1723C65.1366 28.9377 65.0876 28.7064 65.1448 28.4785C65.2102 28.241 65.2771 28.0017 65.3409 27.7643C65.4313 27.4275 65.5398 27.1283 65.1268 26.8719C64.7546 26.6408 64.3627 26.711 63.913 26.687C63.5957 26.67 63.2106 26.6182 62.9239 26.5181C62.7116 26.4424 62.5639 26.3384 62.3805 26.2302C61.9652 25.9854 61.2925 25.8818 60.8779 26.1855C60.7508 26.2785 60.6108 26.4733 60.5033 26.5882C60.1654 26.9495 59.8539 27.3267 59.5059 27.6836C59.0779 28.1078 58.4615 28.5067 57.9748 28.902C57.7654 29.0586 57.4217 29.2947 57.2723 29.4676C57.0601 29.713 56.9668 30.079 56.8311 30.3507C56.7216 30.5697 56.5696 30.7922 56.4449 31.0067L56.0451 31.6923C55.8566 32.0101 55.7053 32.2753 55.4025 32.5504C55.0542 32.8667 54.6428 33.0963 54.1387 33.2756C53.9744 33.3354 53.8061 33.4079 53.6177 33.4205C53.2607 33.4442 53.074 33.3038 52.8628 33.1285C52.6112 32.9197 52.436 32.7215 52.3962 32.4426C52.347 32.0977 52.5518 31.7913 52.7722 31.4951C52.8707 31.3605 52.953 31.2186 53.0626 31.0815C53.1052 31.0282 53.2286 30.8771 53.2562 30.8293C53.309 30.7379 53.3785 30.572 53.4223 30.4731C53.5615 30.1586 53.6985 29.8406 53.8512 29.5293C53.9045 29.4206 54.0299 29.2505 54.1078 29.1419C54.5766 28.488 55.1575 27.8758 55.7869 27.2944C55.916 27.1752 56.0916 27.0701 56.2365 26.9612C56.6924 26.6187 57.3421 26.2304 57.6807 25.8316C57.8942 25.5802 58.124 25.2708 58.326 25.0102C58.4468 24.8543 58.688 24.5645 58.7863 24.4152C59.2359 23.7319 59.4352 23.1781 60.1796 22.6097C60.7566 22.1681 61.4812 21.8509 62.1333 21.4712C62.3022 21.3728 62.4711 21.2633 62.6388 21.1621C63.0609 20.9074 63.4878 20.6538 63.9008 20.3917C64.2204 20.1888 64.5006 19.9525 64.8369 19.7608C65.2056 19.5507 65.5823 19.3476 65.9567 19.1425C66.0967 19.0662 66.3681 18.9252 66.4834 18.8442C66.6604 18.7201 66.8609 18.5151 67.0284 18.3764C67.1556 18.2711 67.2617 18.1627 67.404 18.0621C67.7477 17.8228 68.1941 17.6714 68.6729 17.6315ZM65.4304 22.0698C65.369 22.2174 65.3467 22.3879 65.2776 22.5184C65.2455 22.5791 65.0728 22.7459 65.0198 22.819C64.7007 23.2598 64.6366 23.5339 64.8476 23.9955C65.0339 24.0183 65.1783 24.0258 65.3682 24.035C65.6158 24.0485 65.8507 24.0913 66.0545 23.9709C66.3839 23.7763 66.2303 23.5741 66.1041 23.3406C65.9856 23.1213 65.9468 22.9006 66.06 22.6764C66.119 22.5516 66.2304 22.4287 66.2457 22.2971C66.2542 22.1658 66.2104 22.0308 66.0502 21.9531L65.9086 21.948C65.6987 21.9563 65.5911 21.9704 65.4304 22.0698Z" fill="#1A1A1A"/>
</g>
<path d="M91.0176 8.03696C91.5897 7.99233 92.5669 8.15694 92.9957 8.4204C93.2735 8.59108 93.4404 9.00615 93.5215 9.2577C94.0799 10.9882 92.6488 12.4226 91.5652 13.8706C90.3864 15.4165 88.5578 16.5627 87.0232 17.9186C86.1424 18.697 85.2255 19.4152 84.5701 20.309C84.4579 20.462 84.3896 20.6333 84.3211 20.7987C83.8054 22.0338 82.4915 22.9429 81.8264 24.1306C81.6232 24.4936 81.2539 24.9094 81.0176 25.2684C80.8555 25.5147 80.2743 25.8879 80.6656 26.1645C80.8806 26.3166 81.3866 26.5213 81.7047 26.5167C82.1805 26.5152 82.6291 26.3654 83.1085 26.3655C84.4783 26.3277 85.7209 26.4417 86.8939 25.8298C87.1103 25.717 87.4948 25.5501 87.6878 25.419C87.9605 25.2338 88.2224 25.0518 88.5025 24.8687C89.6468 24.1106 91.0714 23.5979 92.611 23.3899C93.03 23.333 93.4334 23.3165 93.8582 23.272C94.862 23.1667 95.8899 23.0994 96.9082 23.1138C97.4947 23.1227 98.2069 23.1911 98.6464 23.4921C98.9197 23.6996 98.6922 24.1652 98.756 24.3877C98.8622 24.7575 98.9544 25.0009 98.9127 25.3831C98.8707 25.7673 98.6938 26.1067 98.6061 26.4793C98.5193 26.8474 98.5475 27.238 98.4232 27.6044C98.3547 27.826 98.2077 27.9977 98.0533 28.1919C97.5919 28.7675 96.9441 29.2836 96.2346 29.7129C95.9888 29.8615 95.5511 30.0771 95.2726 30.2033C94.1691 30.7034 92.9734 30.5699 91.751 30.4953C90.6034 30.4105 89.3132 30.3989 88.1839 30.5796C87.6411 30.6665 87.1843 30.8187 86.5932 30.8688C85.8954 30.928 85.2255 30.9261 84.5279 30.978C83.8781 31.0263 83.2763 31.1256 82.6457 31.2119C82.0186 31.2977 81.6295 31.3065 81.0046 31.4812C80.4307 31.6418 79.9838 31.8559 79.4174 32.0139C79.1085 32.1 78.7925 32.2083 78.4935 32.2904C77.9826 32.4307 77.469 32.5404 76.9562 32.6902C76.4764 32.8304 75.7829 33.109 75.283 33.1633C74.8082 33.2149 74.1702 33.0842 73.6843 33.0739C72.6729 33.0526 71.5933 33.3179 70.6896 32.8324C70.5789 32.7732 70.5025 32.6792 70.4118 32.6085C69.4096 31.8281 69.7225 30.6099 70.2878 29.7371C70.4323 29.5069 70.5764 29.2339 70.7649 29.0203C71.7383 27.9174 72.682 26.772 73.7311 25.706L74.5369 24.8885C74.9872 24.4266 75.4219 23.9355 75.744 23.4217C75.9961 23.0195 76.0598 22.5829 76.4211 22.2207C76.5989 22.0425 76.819 21.9397 77.0273 21.7838C77.1602 21.6704 77.3405 21.4812 77.4784 21.3549L78.6654 20.2661L79.7687 19.2237C79.8645 19.1336 79.9636 19.0441 80.0618 18.9552C80.534 18.528 80.9218 18.0562 81.3391 17.6045C82.0324 16.854 82.8901 16.1784 83.589 15.4317C84.6198 14.2727 85.9435 13.1669 86.1184 11.7515C86.1496 11.498 86.12 11.2624 86.2202 11.0158C86.3918 10.5934 86.7129 10.2333 87.033 9.86217C87.2186 9.58846 87.3113 9.37053 87.5819 9.1297C87.8886 8.85691 88.0827 8.82551 88.4614 8.65815C89.3224 8.27762 90.0018 8.09938 91.0176 8.03696Z" fill="#1A1A1A"/>
<defs>
<clipPath id="clip0_714_167">
<rect width="38.7169" height="33.7352" fill="white" transform="matrix(0.995839 0.0911258 -0.180041 0.983659 6.07373 0)"/>
</clipPath>
<clipPath id="clip1_714_167">
<rect width="20.7837" height="13.5642" fill="white" transform="matrix(0.99855 -0.0538234 0.107193 0.994238 30.5848 19.8084)"/>
</clipPath>
<clipPath id="clip2_714_167">
<rect width="24.0648" height="19.0666" fill="white" transform="translate(50.9396 15.1505)"/>
</clipPath>
</defs>
</svg>
